<svg xmlns="http://www.w3.org/2000/svg" xmlns:xlink="http://www.w3.org/1999/xlink" width="35" height="21"><defs><path id="a" d="M.693.52h17.085V12H.693z"/></defs><g fill="none" fill-rule="evenodd"><g transform="translate(17 9)"><mask id="b" fill="#fff"><use xlink:href="#a"/></mask><path fill="#5D5246" d="M.693 12s.253-.238.658-.676c.414-.444.98-1.018 1.693-1.704.695-.69 1.55-1.432 2.46-2.207.94-.751 1.942-1.53 3.005-2.221a37.443 37.443 0 016.182-3.323 50.76 50.76 0 012.217-.9c.548-.206.87-.346.87-.346s-.336-.042-.934-.084a12.381 12.381 0 00-2.475.112c-1.026.117-2.199.425-3.422.863-.59.252-1.233.472-1.826.812-.612.304-1.201.677-1.794 1.032-1.141.802-2.222 1.69-3.11 2.641-.883.966-1.628 1.932-2.14 2.842A12.386 12.386 0 00.988 11.1c-.197.564-.294.9-.294.9" mask="url(#b)"/></g><path fill="#5D5246" d="M3.068 10.292a38.488 38.488 0 016.153 3.184c1.058.666 2.056 1.408 2.99 2.128.906.743 1.758 1.454 2.45 2.12.71.653 1.272 1.207 1.684 1.632.403.416.655.644.655.644s-.096-.317-.293-.859a11.41 11.41 0 00-1.085-2.164c-.508-.876-1.25-1.802-2.13-2.723-.883-.917-1.959-1.762-3.094-2.531-.59-.34-1.177-.702-1.786-.993-.586-.326-1.231-.532-1.822-.778-1.213-.42-2.38-.715-3.402-.822a12.503 12.503 0 00-2.463-.112c-.595.04-.925.08-.925.08s.316.139.86.336a50.63 50.63 0 012.208.858M17.5 19s.39-1.19.67-2.972c.295-1.778.49-4.158.5-6.533-.005-2.37-.2-4.75-.5-6.527C17.895 1.185 17.5 0 17.5 0s-.395 1.185-.675 2.968c-.3 1.777-.49 4.157-.495 6.527.005 2.375.2 4.755.5 6.533.275 1.782.67 2.972.67 2.972"/></g></svg>