<svg xmlns="http://www.w3.org/2000/svg" width="58" height="55"><path fill="#FAA80F" fill-rule="evenodd" d="M28.72 25.147l.267-.268c.006.008.008.016.014.026l.01-.026c.09.089.177.181.267.268 1.85 1.805 3.715 3.33 5.586 4.608-1.004.33-2.023.614-3.053.852-.384-1.2-1.492-2.073-2.81-2.073-1.32 0-2.428.873-2.814 2.073a34.91 34.91 0 01-3.051-.852c1.871-1.276 3.736-2.803 5.584-4.608m.281-3.57s-2.441-4.446 0-6.904c2.441 2.458 0 6.903 0 6.903m-1.328 2.413a19.478 19.478 0 01-1.736-2.51 18.112 18.112 0 01-1.72-3.927c-.202-.757-.4-1.54-.49-2.354-.103-.81-.14-1.64-.09-2.461a12.98 12.98 0 01.352-2.422c.184-.785.45-1.536.737-2.246a17.858 17.858 0 012.105-3.614c.375-.487.715-.935 1.059-1.303.33-.375.615-.704.877-.951.086-.089.158-.16.234-.234l.232.234c.262.247.547.576.877.951.342.368.684.816 1.057 1.304a17.858 17.858 0 012.107 3.613c.287.71.551 1.461.737 2.246.181.784.318 1.6.351 2.422.049.822.014 1.651-.09 2.461-.092.814-.287 1.597-.49 2.354a18.208 18.208 0 01-1.719 3.926 19.459 19.459 0 01-1.738 2.51c-.201.249-.365.435-.496.579-.148-.144-.293-.291-.437-.439C34.298 14.174 29 12.165 29 12.165s-5.3 2.01-.395 11.963c-.144.148-.289.295-.437.439-.129-.144-.293-.33-.496-.578m1.568 8.666c-.08.018-.156.05-.24.05-.086 0-.16-.032-.24-.05a1.123 1.123 0 01-.297-.096 1.173 1.173 0 01-.434-.409 1.162 1.162 0 01-.203-.627c0-.65.526-1.178 1.174-1.178.646 0 1.17.527 1.17 1.178 0 .236-.086.442-.201.627a1.179 1.179 0 01-.436.409c-.086.045-.18.07-.277.092-.006 0-.01.002-.016.004m-.181 17.542v.023a.041.041 0 01-.008-.011c-.012.013-.02.03-.031.043v-.085a.17.17 0 01-.02-.031c-3.695-4.632-.475-8.954 0-9.54l.041-.05v-.042c.006.004.012.014.018.02.472.603 3.69 5.039 0 9.673M1.16 18.523c-.023.647-.521 1.339-1.16 1.28.324.348.895.1 1.289-.163.416-.273.88-.643.855-1.142-.021-.378-.33-.7-.322-1.08.002-.255.156-.49.344-.662.73-.675 1.996-.531 2.68.19.685.724.812 1.868.47 2.806-.24.653-1.068 1.264-1.248 1.828-1.02.34-1.847 1.027-2.398 2.027-1.014 1.849-.906 4.45.265 6.331.78 1.25 1.897 2.159 3.182 2.804a6.889 6.889 0 00-1.559.48c-.876.393-2.062 1.126-2.714 2.396-.63 1.225-.545 2.704.209 3.679.59.76 1.556 1.242 2.875 1.433.716.106 1.218-.051 1.486-.458a.398.398 0 10-.66-.446c-.082.122-.344.163-.715.11-1.106-.16-1.898-.54-2.357-1.133-.567-.731-.62-1.865-.13-2.815.546-1.064 1.569-1.693 2.33-2.033 1.173-.523 2.37-.655 3.37-.37.06.018.12.016.18.006 2.976.738 6.341.452 8.735-.318 2.04-.659 4.084-1.65 6.125-2.951 1.229.426 2.483.782 3.75 1.075 0 .041-.012.085-.012.126 0 .91.412 1.714 1.05 2.265-.626 1.095-1.563 2.139-2.776 3.07-1.006.777-1.89 1.247-2.781 1.483-1.057.281-2.127.187-2.94-.257-.894-.488-1.468-1.428-1.431-2.342.039-.942.826-1.805 1.683-1.85.414-.02.89.195 1.203.564.28.335.397.732.32 1.093a.4.4 0 00.303.478.395.395 0 00.475-.306c.13-.608-.047-1.259-.492-1.784-.477-.564-1.164-.883-1.85-.847-1.265.067-2.384 1.266-2.44 2.619-.05 1.21.692 2.45 1.849 3.079 1.001.55 2.255.666 3.523.328.982-.26 1.982-.79 3.06-1.618 1.305-1 2.291-2.096 2.965-3.27.15.07.31.126.473.17-1.262 3.273-4.01 6.214-6.744 8.07-1.088.737-2.307 1.376-3.62 1.412-1.072.03-2.269-.488-2.597-1.516-.27-.855.139-1.799.754-2.446-1.185.543-2.066 1.715-2.264 3.01-.134-1.88-.943-3.796-2.49-4.858-1.55-1.06-3.894-1-5.123.425.64-.513 1.657-.183 2.127.485.475.669.528 1.544.49 2.362-.033.82-.14 1.657.067 2.447.293 1.101 1.066 1.837 2.031 2.324a4.66 4.66 0 00-.926.22c-1.056.386-1.992 1.217-2.308 2.3a6.14 6.14 0 012.998-1.322c.736-.105 1.484-.073 2.23-.065 1.022.01 2.057-.026 3.047-.283.035-.01.07-.026.105-.036 3.684-.36 6.56-2.915 8.836-5.721 1.096-1.355 2.197-2.739 2.99-4.302.445-.877.608-1.647.71-2.438.136.022.27.04.411.043-.271 2.025-1.049 4-2.146 5.716-1 1.56-2.303 2.896-3.428 4.367-1.125 1.468-2.1 3.147-2.26 4.997.43-.743.952-1.478 1.706-1.88.755-.402 1.796-.369 2.357.28.912 1.062.023 2.843.723 4.06.734 1.28 2.984 1.478 3.109 2.951.125-1.473 2.355-1.671 3.091-2.951.698-1.217-.189-2.998.723-4.06.559-.649 1.602-.682 2.357-.28.754.402 1.274 1.137 1.705 1.88-.162-1.85-1.132-3.529-2.26-4.997-1.124-1.471-2.429-2.806-3.425-4.367a13.656 13.656 0 01-2.04-5.727c.1-.006.202-.016.302-.032.105.79.266 1.561.71 2.438.792 1.563 1.895 2.947 2.99 4.302 2.274 2.806 5.151 5.361 8.837 5.721.033.01.07.026.107.036.988.257 2.023.293 3.045.283.744-.008 1.492-.04 2.23.065 1.092.159 2.14.619 2.998 1.323-.316-1.084-1.252-1.915-2.308-2.3a4.74 4.74 0 00-.924-.22c.963-.488 1.736-1.224 2.027-2.325.21-.79.102-1.628.067-2.447-.038-.818.02-1.693.49-2.362.47-.668 1.49-.998 2.127-.485-1.229-1.426-3.57-1.485-5.12-.425-1.548 1.062-2.355 2.979-2.491 4.858a4.034 4.034 0 00-2.264-3.01c.613.647 1.021 1.59.752 2.446-.328 1.028-1.523 1.545-2.598 1.516-1.31-.036-2.53-.675-3.619-1.412-2.734-1.856-5.48-4.797-6.744-8.07.164-.044.323-.099.473-.17.674 1.174 1.662 2.27 2.965 3.27 1.08.828 2.08 1.358 3.06 1.618 1.272.336 2.522.222 3.525-.328 1.155-.63 1.899-1.868 1.848-3.08-.057-1.352-1.174-2.551-2.44-2.616-.677-.05-1.37.279-1.849.845-.445.525-.623 1.174-.492 1.784a.392.392 0 00.473.306.4.4 0 00.304-.478c-.078-.361.04-.758.32-1.093.315-.37.754-.6 1.204-.564.857.045 1.644.908 1.683 1.85.037.914-.537 1.854-1.43 2.342-.812.442-1.884.538-2.94.257-.882-.234-1.79-.717-2.784-1.482-1.213-.932-2.148-1.976-2.775-3.071a2.983 2.983 0 001.05-2.265c0-.041-.011-.085-.013-.126a36.306 36.306 0 003.75-1.075c2.04 1.301 4.088 2.292 6.127 2.95 2.39.771 5.757 1.057 8.736.32a.39.39 0 00.177-.007c1.004-.285 2.198-.153 3.371.37.764.34 1.785.971 2.33 2.033.49.951.438 2.082-.13 2.815-.458.592-1.252.974-2.36 1.133-.369.053-.627.012-.71-.11a.4.4 0 00-.555-.11.403.403 0 00-.108.556c.27.407.776.564 1.486.458 1.32-.19 2.287-.672 2.875-1.433.756-.975.84-2.454.211-3.679-.65-1.268-1.838-2.001-2.716-2.396a6.85 6.85 0 00-1.557-.482c1.285-.645 2.404-1.551 3.182-2.802 1.171-1.881 1.279-4.484.263-6.33-.52-.944-1.283-1.613-2.224-1.97a1.148 1.148 0 00-.184-.093c-.201-.554-1-1.154-1.234-1.793-.344-.938-.217-2.082.468-2.806.684-.721 1.95-.865 2.68-.19.188.173.342.407.346.662.006.38-.305.702-.323 1.08-.027.499.438.869.852 1.142.395.263.967.511 1.291.163-.64.059-1.137-.633-1.162-1.28-.022-.647.271-1.254.49-1.862.219-.61.356-1.315.041-1.88-.375-.676-1.236-.88-1.998-.97-.666-.08-1.367-.117-1.978.155-.94.417-1.44 1.45-1.748 2.436-.17.538-.305 1.099-.28 1.665.04.895.489 1.734 1.082 2.403.29.324.643.684 1.018.95-1.27-.288-2.84-.127-4.062.534-.559.3-1.043.706-1.395 1.217-.35.51-.463 1.217-.15 1.75.476.818 1.61.857 2.466 1.252.606.281 1.122.804 1.293 1.455.662 2.517-2.914 2.196-2.472.822-.324 1.007.476 2.145 1.502 2.39 1.59.384 3.44-.9 3.748-2.46.209-1.068-.17-2.285-1.073-2.883-.363-.24-.785-.374-1.156-.596-.373-.222-.71-.578-.732-1.014-.03-.563.474-1.003.978-1.249.371-.18.758-.299 1.149-.344 1.084.319 1.714 1.056 2.068 1.7.883 1.605.785 3.874-.238 5.516-2.61 4.191-9.36 4.278-13.316 2.998-1.797-.58-3.602-1.44-5.408-2.54.136-.051.275-.099.408-.152 1.387-.544 3.168-1.339 4.658-2.628 1.52-1.322 2.49-2.985 2.734-4.688a5.614 5.614 0 00-.863-3.85c-.066-.699-.053-1.397.271-2.075.221-.468.57-.897 1.047-1.093.274-.113.573-.14.867-.146.362-.01.74.016 1.047.205.569.35.674 1.264.2 1.734.449.175.984.025 1.337-.305.352-.328.537-.814.575-1.296a2.67 2.67 0 00-.914-2.216 2.638 2.638 0 00-2.32-.54c-.485.124-.923.385-1.329.672-.355.252-.7.535-.922.909-.336.57-.345 1.268-.336 1.928.01.586.03 1.227.178 1.819a4.415 4.415 0 00-.828-.785c-.697-.495-1.557-.798-2.488-.88a5.209 5.209 0 00-.463-.022c-1.973 0-3.795 1.115-4.443 2.774-.217.55-.268 1.174-.174 1.785.068.995.459 1.966 1.18 2.503.216.161.466.273.722.356a2.82 2.82 0 001.114.144c.753-.067 1.478-.498 1.769-1.206.348-.843.076-1.618-.31-2.402-.182-.37-.557-.804-.91-.596.368.324.513.897.3 1.339-.21.44-.785.684-1.23.488-.346-.156-.563-.52-.625-.893-.065-.372.002-.753.091-1.12.165-.675.416-1.347.891-1.849.125-.132.268-.238.418-.334a4.452 4.452 0 011.6-.17c.793.072 1.52.325 2.1.738 1.228.871 1.896 2.587 1.657 4.272-.213 1.508-1.088 2.997-2.464 4.192-1.397 1.211-3.098 1.966-4.426 2.49-.324.129-.652.243-.983.361-1.992-1.307-3.982-2.924-5.956-4.848.136-.134.312-.311.53-.547a19.895 19.895 0 001.895-2.426 18.315 18.315 0 001.989-3.9c.255-.766.507-1.568.65-2.41.158-.839.248-1.708.248-2.58.016-.876-.078-1.749-.223-2.6-.148-.85-.382-1.67-.646-2.45-.285-.768-.6-1.5-.951-2.166a18.557 18.557 0 00-1.073-1.827c-.365-.544-.703-1.042-1.04-1.45-.327-.42-.61-.79-.87-1.064l-.595-.675a.764.764 0 00-.198-.287.77.77 0 00-.517-.195C29.03.006 29.015 0 29 0c-.016-.001-.031.006-.047.006a.767.767 0 00-.517.195.787.787 0 00-.198.287l-.597.675c-.26.275-.541.644-.868 1.063-.337.41-.677.907-1.04 1.451A18.95 18.95 0 0023.71 7.67c-.265.78-.498 1.6-.646 2.45-.147.851-.24 1.724-.223 2.6-.002.872.088 1.741.246 2.58.145.842.395 1.644.652 2.41a18.405 18.405 0 001.987 3.9 19.686 19.686 0 001.896 2.426c.219.236.393.413.53.547-1.973 1.924-3.963 3.54-5.957 4.848-.329-.118-.659-.232-.983-.362-1.324-.523-3.029-1.278-4.424-2.489-1.376-1.195-2.253-2.684-2.464-4.192-.239-1.685.427-3.4 1.658-4.272.58-.413 1.306-.666 2.1-.737a4.426 4.426 0 011.595.169c.15.096.295.202.422.334.475.502.725 1.174.889 1.848.09.368.156.75.093 1.12-.064.375-.28.738-.623.894-.447.196-1.021-.048-1.232-.488-.213-.442-.068-1.015.299-1.339-.352-.208-.727.226-.908.596-.502 1.016-.842 2.396.279 3.12.13.085.262.171.396.256.168.11.34.22.528.283.316.104.732-.022 1.05-.087.977-.206 1.787-1.187 2.112-2.09a3.532 3.532 0 00.093-2.074 3.004 3.004 0 00-.16-.588c-.648-1.66-2.47-2.774-4.441-2.774-.154 0-.309.008-.463.022-.931.082-1.793.385-2.49.88-.309.219-.58.49-.826.787.148-.592.168-1.235.176-1.82.01-.661 0-1.36-.336-1.93-.221-.373-.565-.656-.918-.908-.408-.287-.848-.548-1.33-.672a2.642 2.642 0 00-2.322.54 2.68 2.68 0 00-.913 2.216c.038.482.221.968.575 1.296.351.33.888.48 1.336.305-.473-.47-.368-1.385.199-1.734.308-.19.687-.215 1.049-.205.294.006.595.033.867.146.476.196.824.625 1.047 1.093.324.678.337 1.376.271 2.076a5.602 5.602 0 00-.861 3.85c.24 1.702 1.209 3.365 2.732 4.687 1.488 1.29 3.27 2.084 4.656 2.628.135.053.272.1.408.152-1.804 1.1-3.609 1.96-5.406 2.54-3.96 1.28-10.706 1.19-13.316-2.998-1.025-1.642-1.12-3.91-.24-5.515.35-.635.965-1.36 2.02-1.687.021-.008.042-.012.064-.018.207-.059.436-.1.676-.126.218.022.468.122.634.203.504.244.83.957.803 1.52-.021.436-.361.792-.734 1.014-.371.222-.793.356-1.154.596-.903.598-1.284 1.815-1.073 2.882.307 1.561 2.158 2.845 3.75 2.462 1.022-.246 1.822-1.384 1.5-2.391.442 1.374-3.136 1.695-2.474-.822.172-.65.69-1.174 1.296-1.455.854-.395 1.989-.434 2.465-1.252.31-.533.197-1.24-.152-1.75-.35-.511-.893-.85-1.45-1.109-.866-.401-1.798-.775-2.769-.765-.168.002-.332.028-.498.051a5.197 5.197 0 00-.795.11c.4-.267.77-.648 1.075-.988.591-.669 1.04-1.508 1.08-2.403.027-.566-.11-1.127-.278-1.665-.308-.985-.808-2.02-1.75-2.436-.611-.272-1.312-.234-1.974-.156-.766.09-1.623.295-2.002.972-.313.564-.176 1.27.043 1.88.217.607.51 1.214.488 1.861"/></svg>