<svg xmlns="http://www.w3.org/2000/svg" xmlns:xlink="http://www.w3.org/1999/xlink" width="45" height="18"><defs><path id="a" d="M0 .004h17.675v6.108H0z"/><path id="c" d="M.776 1.11h14.467V24H.776z"/><path id="e" d="M0 .564h17.675v6.331H0z"/><path id="g" d="M.776.932h14.467V23.82H.776z"/></defs><g fill="none" fill-rule="evenodd"><g transform="matrix(0 1 1 0 22 .2)"><mask id="b" fill="#fff"><use xlink:href="#a"/></mask><path fill="#407FA0" d="M17.676.004H.004c-.066.848.76 1.853 1.618 1.934.812.075 1.473-.384 2.225-.422-.502.805-.804 1.693-.502 2.644.334 1.047 1.346 1.85 2.457 1.952a1.584 1.584 0 01-.271-1.366c.134-.481.499-1.016.861-1.348.346-.316.765-.534 1.193-.731C10.676 1.265 14.261.598 17.676.172V.004z" mask="url(#b)"/></g><g transform="matrix(0 1 1 0 20.8 2.6)"><mask id="d" fill="#fff"><use xlink:href="#c"/></mask><path fill="#407FA0" d="M15.244 1.11c-3.323.873-6.563 2.414-9.13 4.643-2.294 1.99-4.002 4.573-4.794 7.52-.479 1.794-.616 3.66-.51 5.508.048.842.563 6.447 2.364 4.974.296-.242.347-.688.235-1.053-.11-.365-.347-.676-.555-.994a7.593 7.593 0 01-.93-6.214c.102-.346.345-.758.7-.69.174.033.303.176.401.322.26.384.426.83.7 1.207.272.376.723.685 1.179.595.498-.095.806-.643.826-1.148.017-.514-.176-1.002-.33-1.49-.54-1.721-.832-4.374.036-6.053.784-1.515 2.666-3.132 4.043-4.12 1.131-.811 2.403-1.4 3.685-1.931.683-.287 1.386-.525 2.08-.78V1.11z" mask="url(#d)"/></g><g transform="matrix(0 1 1 0 16 .2)"><mask id="f" fill="#fff"><use xlink:href="#e"/></mask><path fill="#407FA0" d="M17.676 6.724c-3.415-.442-7-1.137-10.09-2.593-.429-.199-.848-.425-1.194-.753-.362-.347-.727-.902-.861-1.4A1.685 1.685 0 015.802.564c-1.11.104-2.123.938-2.457 2.022-.302.982 0 1.904.502 2.744-.752-.042-1.413-.521-2.225-.437C.764 4.974-.062 6.016.004 6.895h17.672v-.171z" mask="url(#f)"/></g><g transform="matrix(0 1 1 0 -.8 2.6)"><mask id="h" fill="#fff"><use xlink:href="#g"/></mask><path fill="#407FA0" d="M15.244 23.525c-.694-.258-1.397-.494-2.08-.777-1.282-.536-2.554-1.123-3.685-1.934-1.377-.988-3.26-2.605-4.043-4.12-.868-1.68-.577-4.335-.036-6.053.154-.488.347-.977.33-1.488-.02-.51-.328-1.052-.826-1.15-.456-.09-.907.221-1.179.597-.274.374-.44.823-.7 1.205-.098.146-.227.289-.4.322-.356.068-.6-.345-.7-.693a7.58 7.58 0 01.93-6.209c.207-.32.445-.629.554-.997.112-.364.061-.81-.235-1.052C1.374-.295.858 5.31.81 6.153.704 8 .841 9.866 1.32 11.654c.792 2.95 2.5 5.533 4.794 7.523 2.567 2.226 5.807 3.773 9.13 4.643v-.295z" mask="url(#h)"/></g></g></svg>