<svg xmlns="http://www.w3.org/2000/svg" width="22" height="48"><defs><path d="M0 47l24.441-.644L25 0H0z"/></defs><g fill="#5D5246" fill-rule="evenodd"><path d="M.004 23H20l-.165.019c-3.944.476-8.217 1.244-11.84 3.034-.45.223-.896.473-1.257.836-.382.383-.77.993-.905 1.548A1.937 1.937 0 006.113 30c-1.168-.115-2.235-1.037-2.588-2.238-.32-1.087.003-2.106.53-3.031-.796.043-1.487.572-2.342.483C.805 25.124-.066 23.969.003 23"/><path d="M21 23l-.314.054c-4.276.771-8.575 2.633-11.868 5.433-2.5 2.128-4.364 4.893-5.221 8.045-.525 1.915-.678 3.911-.559 5.886.055.9.61 6.895 2.576 5.32.32-.259.378-.736.26-1.126-.12-.39-.38-.724-.608-1.063-1.294-1.93-1.676-4.427-1.013-6.643.113-.372.375-.813.763-.738.186.03.326.186.436.342.287.411.464.889.76 1.29.302.4.787.733 1.285.64.546-.108.878-.687.9-1.234.021-.543-.186-1.068-.354-1.59-.59-1.838-.91-4.674.04-6.472.854-1.621 2.902-3.347 4.403-4.407 1.23-.867 2.615-1.495 4.013-2.065a59.746 59.746 0 014.05-1.486L21 23z"/><path d="M20 25c-.055-.006-.11-.015-.165-.022-3.944-.476-8.217-1.244-11.84-3.03-.45-.225-.896-.476-1.257-.838-.382-.38-.77-.993-.905-1.547A1.936 1.936 0 016.113 18c-1.168.118-2.235 1.037-2.588 2.237-.32 1.09.003 2.108.53 3.03-.796-.043-1.487-.572-2.342-.483C.805 22.877-.066 24.028.003 25H20z"/><path d="M21.37 24.829a5.922 5.922 0 01-.301-.053c-4.092-.75-8.207-2.56-11.358-5.285-2.392-2.07-4.177-4.756-4.998-7.821-.502-1.866-.648-3.808-.534-5.729.052-.876.584-6.706 2.465-5.174.307.252.362.716.248 1.095-.114.383-.362.704-.581 1.034a7.878 7.878 0 00-.97 6.464c.108.36.36.788.73.718.179-.032.313-.184.418-.335.275-.4.444-.865.727-1.256.29-.388.754-.712 1.23-.619.523.102.841.666.861 1.2.02.529-.178 1.037-.338 1.545-.564 1.79-.87 4.548.038 6.294.817 1.577 2.777 3.259 4.214 4.287 1.177.843 2.503 1.456 3.84 2.008a55.1 55.1 0 003.876 1.446l.433.18z"/><path d="M16.416 23.518l-.416.484.416.479s1.43-.303 2.473 0c.81.24 1.785.842 2.644.299.623-.391.623-1.167 0-1.56-.86-.543-1.835.063-2.644.298-1.043.306-2.473 0-2.473 0z"/></g></svg>