<svg xmlns="http://www.w3.org/2000/svg" xmlns:xlink="http://www.w3.org/1999/xlink" width="112" height="26"><defs><path id="a" d="M0 .33h51.889v19.56H0z"/><path id="c" d="M.11.227h16.57V26H.11z"/><path id="e" d="M.268.227h16.571V26H.268z"/></defs><g fill="none" fill-rule="evenodd"><path fill="#5D5246" d="M65.536 25c-3.245-1.492-5.263-4.282-5.508-7.148-.136-1.44.222-2.915 1.056-4.252.824-1.346 2.207-2.475 3.795-3.356 3.215-1.717 7.54-2.402 11.452-1.488 1.94.455 3.66 1.26 5.166 2.188 1.512.928 2.83 1.972 4.115 3.001 2.527 2.06 5.052 4.149 8.339 5.19 3.246 1.06 7.148.873 10.404-.23 1.62-.574 3.098-1.388 4.23-2.424 1.133-1.034 1.951-2.27 2.367-3.59.92-2.629.274-5.568-1.844-7.891 2.444 2.161 3.362 5.198 2.666 8.02-.338 1.42-1.133 2.786-2.3 3.97-1.172 1.185-2.774 2.118-4.527 2.8-3.527 1.33-7.86 1.59-11.624.45-1.87-.57-3.504-1.442-4.954-2.402-1.455-.964-2.744-2.015-4.022-3.04-1.27-1.03-2.531-2.041-3.925-2.91-1.386-.87-2.929-1.575-4.591-1.997-3.334-.852-7.215-.298-10.185 1.157-1.467.752-2.74 1.738-3.56 2.915-.827 1.175-1.249 2.517-1.222 3.869-.033 2.705 1.67 5.45 4.672 7.168"/><g transform="translate(0 5)"><mask id="b" fill="#fff"><use xlink:href="#a"/></mask><path fill="#5D5246" d="M46.365 19.89c2.997-1.68 4.696-4.364 4.663-7.01.027-1.322-.394-2.635-1.22-3.784-.82-1.15-2.089-2.115-3.553-2.85-2.964-1.424-6.837-1.966-10.163-1.132-1.659.412-3.197 1.102-4.58 1.953-1.391.85-2.65 1.838-3.917 2.846-1.277 1.002-2.563 2.03-4.013 2.973-1.448.94-3.079 1.792-4.945 2.35-3.755 1.114-8.079.859-11.6-.442-1.749-.666-3.346-1.578-4.517-2.738C1.355 10.9.564 9.562.225 8.175-.47 5.414.447 2.444 2.885.33.772 2.602.128 5.477 1.046 8.05c.414 1.29 1.231 2.499 2.362 3.51 1.129 1.013 2.605 1.809 4.222 2.37 3.247 1.08 7.141 1.263 10.38.226 3.282-1.019 5.8-3.06 8.323-5.076 1.28-1.007 2.596-2.028 4.104-2.936 1.503-.906 3.222-1.694 5.157-2.14 3.904-.893 8.218-.224 11.428 1.456 1.584.862 2.964 1.966 3.787 3.282.831 1.307 1.188 2.75 1.052 4.158-.243 2.804-2.259 5.532-5.496 6.991" mask="url(#b)"/></g><g transform="translate(54)"><mask id="d" fill="#fff"><use xlink:href="#c"/></mask><path fill="#5D5246" d="M.39 5.874c-.404-.8-.36-1.715.062-2.539.425-.82 1.17-1.573 2.178-2.133C3.655.652 4.917.331 6.2.25 7.487.167 8.794.31 10 .636c2.462.633 4.341 2.097 5.415 3.714 1.1 1.638 1.398 3.482 1.216 5.231-.207 1.762-.86 3.446-1.715 5.065a20.503 20.503 0 01-3.41 4.573C8.769 22.076 5.029 24.423.783 26c3.885-1.986 7.141-4.478 9.58-7.299 1.204-1.417 2.256-2.897 3.004-4.455.768-1.548 1.37-3.152 1.527-4.76.196-1.601-.069-3.218-.977-4.657-.868-1.443-2.414-2.681-4.43-3.31C7.49.888 5.013.84 3.12 1.69c-.947.416-1.733 1.04-2.244 1.768-.49.734-.707 1.58-.485 2.415" mask="url(#d)"/></g><g transform="translate(41)"><mask id="f" fill="#fff"><use xlink:href="#e"/></mask><path fill="#5D5246" d="M16.559 5.874c.22-.834.004-1.681-.485-2.415-.513-.728-1.297-1.352-2.246-1.768C11.935.84 9.46.888 7.463 1.518c-2.016.63-3.562 1.868-4.43 3.311-.909 1.44-1.174 3.056-.979 4.658.16 1.607.761 3.211 1.529 4.759.746 1.558 1.798 3.038 3.002 4.455 2.44 2.821 5.696 5.313 9.58 7.3-4.244-1.578-7.986-3.925-10.721-6.782a20.51 20.51 0 01-3.411-4.573C1.179 13.026.526 11.343.318 9.581c-.181-1.749.116-3.593 1.215-5.23C2.607 2.732 4.486 1.268 6.949.635A11.774 11.774 0 0110.748.25c1.283.081 2.547.401 3.57.952 1.01.56 1.753 1.313 2.18 2.133.42.824.464 1.739.06 2.54" mask="url(#f)"/></g></g></svg>