<svg xmlns="http://www.w3.org/2000/svg" xmlns:xlink="http://www.w3.org/1999/xlink" width="29" height="46"><defs><path id="a" d="M0 0h28.417v45.948H0z"/></defs><g fill="none" fill-rule="evenodd"><mask id="b" fill="#fff"><use xlink:href="#a"/></mask><path fill="#998675" d="M28.417 24.468c0-5.864-2.475-8.669-7.36-12.056-4.303-2.98-5.329-8.828-5.566-10.968V.708a.707.707 0 10-1.414 0v34.356c-1.894-1.594-5.369-1.773-8.669-.24C1.333 36.717-.93 40.504.364 43.286c1.292 2.778 5.645 3.496 9.72 1.606 3.291-1.53 5.393-4.293 5.405-6.765.002-.003.002-.004.002-.01V11.023c.968 4.542 12.246 5.92 12.246 14.074 0 5.186-2.036 9.03-2.036 9.03s2.716-3.795 2.716-9.66" mask="url(#b)"/></g></svg>