<svg xmlns="http://www.w3.org/2000/svg" xmlns:xlink="http://www.w3.org/1999/xlink" width="211" height="334" viewBox="0 0 211 334">
  <defs>
    <polygon id="scale_height-a" points=".529 .247 17.471 .247 17.471 7.659 .529 7.659"/>
    <polygon id="scale_height-c" points=".529 .247 17.471 .247 17.471 7.659 .529 7.659"/>
    <path id="scale_height-e" d="M9.83,16.992 L9.83,16.2 L8.114,16.068 C7.696,16.024 7.432,15.87 7.432,15.056 L7.432,3.088 L7.3,2.934 L2.834,3.572 L2.834,4.254 L4.704,4.54 C5.078,4.584 5.21,4.76 5.21,5.376 L5.21,15.056 C5.21,15.606 5.122,16.024 4.528,16.068 L2.812,16.2 L2.812,16.992 L9.83,16.992 Z"/>
    <path id="scale_height-f" d="M5.676,16.242 C8.8,16.242 10.406,14.24 10.406,11.446 C10.406,8.652 8.668,7.178 6.512,7.178 C4.972,7.178 3.696,8.146 3.102,8.872 L3.058,8.872 C3.058,4.846 4.136,2.844 5.962,2.844 C6.908,2.844 7.436,3.482 7.942,4.56 C8.052,4.802 8.206,5.198 8.668,5.198 C9.13,5.198 9.768,4.824 9.768,4.208 C9.768,3.35 8.756,1.942 6.248,1.942 L6.226,1.942 C4.554,1.942 3.3,2.58 2.442,3.636 C1.54,4.736 0.88,6.892 0.88,9.752 C0.88,14.218 2.486,16.242 5.676,16.242 Z M5.698,15.34 C3.916,15.34 3.102,13.514 3.102,11.204 C3.102,9.95 3.982,8.432 5.654,8.432 L5.676,8.432 C6.974,8.432 8.14,9.422 8.14,11.798 C8.14,13.932 7.414,15.34 5.698,15.34 Z M20.57,16 L21.362,12.502 L20.592,12.326 C19.91,13.976 19.646,14.196 18.964,14.196 L13.486,14.196 C13.948,13.184 15.312,12.062 17.116,10.786 C19.096,9.4 20.724,8.256 20.724,5.88 C20.724,2.932 18.634,1.942 16.456,1.942 C13.442,1.942 11.792,4.01 11.792,5.22 C11.792,5.946 12.518,6.32 13.002,6.32 C13.354,6.32 13.53,6.1 13.64,5.77 C14.102,4.45 14.828,2.844 16.28,2.844 C17.776,2.844 18.304,4.164 18.304,5.55 C18.304,8.058 17.336,8.982 15.51,10.588 C13.002,12.744 11.924,14.57 11.704,15.758 L11.946,16 L20.57,16 Z"/>
    <polygon id="scale_height-g" points=".647 .302 21.353 .302 21.353 9.361 .647 9.361"/>
    <polygon id="scale_height-i" points=".647 .302 21.353 .302 21.353 9.361 .647 9.361"/>
    <polygon id="scale_height-k" points=".529 .247 17.471 .247 17.471 7.659 .529 7.659"/>
    <polygon id="scale_height-m" points=".529 .247 17.471 .247 17.471 7.659 .529 7.659"/>
    <path id="scale_height-o" d="M9.897,16 L9.897,15.208 L8.181,15.076 C7.763,15.032 7.499,14.878 7.499,14.064 L7.499,2.096 L7.367,1.942 L2.901,2.58 L2.901,3.262 L4.771,3.548 C5.145,3.592 5.277,3.768 5.277,4.384 L5.277,14.064 C5.277,14.614 5.189,15.032 4.595,15.076 L2.879,15.208 L2.879,16 L9.897,16 Z M16.717,16.242 C17.333,16.242 17.795,16.132 17.729,15.45 C17.685,15.098 17.685,14.702 17.685,14.328 C17.685,12.326 18.169,10.28 19.093,8.674 C20.479,6.32 21.337,5.22 22.129,2.47 L21.887,2.184 L13.285,2.184 L12.625,5.836 L13.417,5.858 L13.571,5.528 C13.879,4.934 14.011,4.054 14.957,4.054 L20.567,4.054 C20.061,5.132 19.445,6.43 18.323,8.036 C16.563,10.522 15.375,12.634 15.375,15.23 C15.375,15.956 16.057,16.242 16.717,16.242 Z M27.805,16.242 C31.237,16.242 32.843,14.174 32.843,11.534 C32.843,8.674 31.127,7.42 28.553,7.42 C27.387,7.42 26.045,8.014 25.495,8.498 L25.451,8.476 L25.979,4.736 C26.0607143,4.14357143 26.1803673,4.06331633 26.5493324,4.05487391 L31.853,4.054 L32.535,2.118 L32.359,2.008 C31.9758333,2.14916667 31.6666111,2.17941667 30.1095764,2.18347801 L25.297,2.184 L25.055,2.404 L24.373,9.73 L25.055,10.038 C25.935,9.048 26.815,8.52 27.827,8.52 C29.169,8.52 30.489,9.07 30.489,11.754 C30.489,13.866 29.565,15.34 27.915,15.34 C26.639,15.34 25.847,14.614 25.385,13.294 C25.275,12.986 25.077,12.766 24.769,12.766 C24.329,12.766 23.581,13.206 23.581,13.91 C23.581,14.834 25.099,16.242 27.805,16.242 Z"/>
    <path id="scale_height-p" d="M5.805,16.242 C8.819,16.242 10.843,14.658 10.843,12.018 C10.843,9.114 8.489,8.652 7.323,8.41 L7.323,8.322 C8.445,8.146 10.271,7.332 10.271,5.308 C10.271,2.844 8.247,1.942 6.047,1.942 C3.363,1.942 1.823,3.57 1.823,4.538 C1.823,5.198 2.505,5.572 2.857,5.572 C3.143,5.572 3.407,5.418 3.473,5.176 C3.957,3.944 4.727,2.844 5.959,2.844 C7.521,2.844 7.807,4.252 7.807,5.264 C7.807,6.518 7.389,8.014 5.651,8.014 C4.573,8.014 4.683,7.838 4.243,7.838 C3.979,7.838 3.737,8.08 3.737,8.454 L3.737,8.476 C3.737,8.916 3.979,9.158 4.221,9.158 C4.727,9.158 4.595,8.982 5.651,8.982 C7.345,8.982 8.357,10.412 8.357,12.216 C8.357,14.548 7.235,15.34 5.805,15.34 C4.485,15.34 3.627,14.24 3.231,13.184 C3.077,12.81 2.813,12.59 2.505,12.59 C1.999,12.59 1.339,13.052 1.339,13.844 C1.339,14.724 2.769,16.242 5.805,16.242 Z M17.333,16.242 C20.787,16.242 22.041,13.206 22.041,9.092 C22.041,4.978 20.787,1.942 17.355,1.942 L17.333,1.942 C13.857,1.942 12.625,4.978 12.625,9.092 C12.625,13.184 13.857,16.242 17.333,16.242 Z M17.333,15.34 C15.419,15.34 14.935,12.348 14.935,9.092 C14.935,5.836 15.419,2.844 17.289,2.844 L17.311,2.844 C19.247,2.844 19.709,5.836 19.709,9.092 C19.709,12.348 19.225,15.34 17.333,15.34 Z"/>
  </defs>
  <g fill="none" fill-rule="evenodd" transform="translate(-2 1)">
    <g fill="#3D342B" font-family="UtopiaStd-Capt, Utopia Std" font-size="16" transform="translate(6 84)">
      <text>
        <tspan x="0" y="12">‘PEOPLE</tspan>
      </text>
      <text>
        <tspan x="0" y="35.2">HOLDING</tspan>
      </text>
      <text>
        <tspan x="0" y="58.4">THE SAME</tspan>
      </text>
      <text>
        <tspan x="0" y="81.6">JOB TITLE’</tspan>
      </text>
      <text>
        <tspan x="0" y="104.8">SCALE</tspan>
      </text>
    </g>
    <g transform="translate(20.233 51.5)">
      <line x1="8.267" x2="28.267" y1="9" y2="9" stroke="#5D5246" stroke-linecap="round" stroke-width="2.2"/>
      <g transform="matrix(0 -1 -1 0 35.235 18.235)">
        <mask id="scale_height-b" fill="#fff">
          <use xlink:href="#scale_height-a"/>
        </mask>
        <path fill="#231F20" fill-rule="nonzero" d="M8.94831891,5.59010035 C8.05838181,-2.057198 0.529411765,0.750309179 0.529411765,0.750309179 C0.529411765,0.750309179 6.17457751,0.307553947 8.77453412,6.65656761 C8.55361164,6.7192065 8.39061742,6.91247692 8.38834572,7.14161748 C8.38493818,7.42429555 8.62573801,7.65611298 8.92560194,7.65885651 C9.22546588,7.6620021 9.47080909,7.43500305 9.47421664,7.15232498 C9.47648834,6.92264905 9.31803751,6.72723713 9.09825087,6.65977986 C11.8362131,0.362697585 17.4705882,0.915204719 17.4705882,0.915204719 C17.4705882,0.915204719 10.0046578,-2.03845987 8.94831891,5.59010035" mask="url(#scale_height-b)"/>
      </g>
      <g transform="rotate(-90 9.5 8.735)">
        <mask id="scale_height-d" fill="#fff">
          <use xlink:href="#scale_height-c"/>
        </mask>
        <path fill="#231F20" fill-rule="nonzero" d="M8.94831891,5.59010035 C8.05838181,-2.057198 0.529411765,0.750309179 0.529411765,0.750309179 C0.529411765,0.750309179 6.17457751,0.307553947 8.77453412,6.65656761 C8.55361164,6.7192065 8.39061742,6.91247692 8.38834572,7.14161748 C8.38493818,7.42429555 8.62573801,7.65611298 8.92560194,7.65885651 C9.22546588,7.6620021 9.47080909,7.43500305 9.47421664,7.15232498 C9.47648834,6.92264905 9.31803751,6.72723713 9.09825087,6.65977986 C11.8362131,0.362697585 17.4705882,0.915204719 17.4705882,0.915204719 C17.4705882,0.915204719 10.0046578,-2.03845987 8.94831891,5.59010035" mask="url(#scale_height-d)"/>
      </g>
    </g>
    <g fill-rule="nonzero" transform="translate(0 47)">
      <use fill="#000" xlink:href="#scale_height-e"/>
      <use fill="#3D342B" xlink:href="#scale_height-e"/>
    </g>
    <g fill-rule="nonzero" transform="translate(64 49)">
      <use fill="#000" xlink:href="#scale_height-f"/>
      <use fill="#3D342B" xlink:href="#scale_height-f"/>
    </g>
    <g stroke="#807160" stroke-dasharray="3" opacity=".68" transform="translate(6)">
      <path d="M15.7370389,84.3904875 C19.5738979,77.6808413 22.014249,67.5981118 22.014249,56.3240633 C22.014249,49.3937807 21.0921143,42.9136616 19.4903093,37.3904875" transform="rotate(-4 18.876 60.89)"/>
      <path d="M0,125 C22.416975,112.5 43,93.75 43,62.5 C43,53.0525446 41.1187832,44.7475457 37.8744026,37.4123104 C30.3871219,20.4842818 15.6399071,8.72101784 0,0"/>
    </g>
    <g transform="translate(65.233 14)">
      <g transform="rotate(90 59.75 60.25)">
        <line x1="9.267" x2="309.267" y1="11" y2="11" stroke="#5D5246" stroke-linecap="round" stroke-width="2.2"/>
        <g transform="rotate(-90 11.5 10.676)">
          <mask id="scale_height-h" fill="#fff">
            <use xlink:href="#scale_height-g"/>
          </mask>
          <path fill="#231F20" fill-rule="nonzero" d="M10.9368342,6.83234487 C9.84913332,-2.51435311 0.647058824,0.917044552 0.647058824,0.917044552 C0.647058824,0.917044552 7.54670584,0.375899268 10.7244306,8.13580486 C10.4544142,8.2123635 10.2551991,8.44858291 10.2524226,8.72864358 C10.2482578,9.074139 10.5425687,9.35747142 10.909069,9.36082462 C11.2755694,9.36466924 11.5754333,9.08722595 11.5795981,8.74173053 C11.5823746,8.46101551 11.3887125,8.22217871 11.1200844,8.13973094 C14.4664826,0.443297048 21.3529412,1.11858355 21.3529412,1.11858355 C21.3529412,1.11858355 12.227915,-2.49145095 10.9368342,6.83234487" mask="url(#scale_height-h)"/>
        </g>
        <g transform="matrix(0 -1 -1 0 318.176 22.176)">
          <mask id="scale_height-j" fill="#fff">
            <use xlink:href="#scale_height-i"/>
          </mask>
          <path fill="#231F20" fill-rule="nonzero" d="M10.9368342,6.83234487 C9.84913332,-2.51435311 0.647058824,0.917044552 0.647058824,0.917044552 C0.647058824,0.917044552 7.54670584,0.375899268 10.7244306,8.13580486 C10.4544142,8.2123635 10.2551991,8.44858291 10.2524226,8.72864358 C10.2482578,9.074139 10.5425687,9.35747142 10.909069,9.36082462 C11.2755694,9.36466924 11.5754333,9.08722595 11.5795981,8.74173053 C11.5823746,8.46101551 11.3887125,8.22217871 11.1200844,8.13973094 C14.4664826,0.443297048 21.3529412,1.11858355 21.3529412,1.11858355 C21.3529412,1.11858355 12.227915,-2.49145095 10.9368342,6.83234487" mask="url(#scale_height-j)"/>
        </g>
      </g>
      <g stroke="#807160" stroke-dasharray="3" opacity=".68" transform="translate(108.767 8)">
        <path d="M23,153 C23,76.5 11.990475,30.6 0,0"/>
        <path d="M23,304 C23,227.5 11.990475,181.6 0,151" transform="matrix(1 0 0 -1 0 455)"/>
      </g>
      <g transform="rotate(90 -19.75 117.25)">
        <line x1="8.267" x2="38.267" y1="9" y2="9" stroke="#5D5246" stroke-linecap="round" stroke-width="2.2"/>
        <g transform="matrix(0 -1 -1 0 45.235 18.235)">
          <mask id="scale_height-l" fill="#fff">
            <use xlink:href="#scale_height-k"/>
          </mask>
          <path fill="#231F20" fill-rule="nonzero" d="M8.94831891,5.59010035 C8.05838181,-2.057198 0.529411765,0.750309179 0.529411765,0.750309179 C0.529411765,0.750309179 6.17457751,0.307553947 8.77453412,6.65656761 C8.55361164,6.7192065 8.39061742,6.91247692 8.38834572,7.14161748 C8.38493818,7.42429555 8.62573801,7.65611298 8.92560194,7.65885651 C9.22546588,7.6620021 9.47080909,7.43500305 9.47421664,7.15232498 C9.47648834,6.92264905 9.31803751,6.72723713 9.09825087,6.65977986 C11.8362131,0.362697585 17.4705882,0.915204719 17.4705882,0.915204719 C17.4705882,0.915204719 10.0046578,-2.03845987 8.94831891,5.59010035" mask="url(#scale_height-l)"/>
        </g>
        <g transform="rotate(-90 9.5 8.735)">
          <mask id="scale_height-n" fill="#fff">
            <use xlink:href="#scale_height-m"/>
          </mask>
          <path fill="#231F20" fill-rule="nonzero" d="M8.94831891,5.59010035 C8.05838181,-2.057198 0.529411765,0.750309179 0.529411765,0.750309179 C0.529411765,0.750309179 6.17457751,0.307553947 8.77453412,6.65656761 C8.55361164,6.7192065 8.39061742,6.91247692 8.38834572,7.14161748 C8.38493818,7.42429555 8.62573801,7.65611298 8.92560194,7.65885651 C9.22546588,7.6620021 9.47080909,7.43500305 9.47421664,7.15232498 C9.47648834,6.92264905 9.31803751,6.72723713 9.09825087,6.65977986 C11.8362131,0.362697585 17.4705882,0.915204719 17.4705882,0.915204719 C17.4705882,0.915204719 10.0046578,-2.03845987 8.94831891,5.59010035" mask="url(#scale_height-n)"/>
        </g>
      </g>
      <path stroke="#807160" stroke-dasharray="3" d="M87.7666667,176 C92.1849447,176 95.7666667,169.060414 95.7666667,160.5 C95.7666667,151.939586 92.1849447,145 87.7666667,145" opacity=".68"/>
      <g fill-rule="nonzero" transform="translate(114 148)">
        <use fill="#000" xlink:href="#scale_height-o"/>
        <use fill="#3D342B" xlink:href="#scale_height-o"/>
      </g>
      <g fill-rule="nonzero" transform="translate(58 148)">
        <use fill="#000" xlink:href="#scale_height-p"/>
        <use fill="#3D342B" xlink:href="#scale_height-p"/>
      </g>
      <g fill="#3D342B" font-family="UtopiaStd-Capt, Utopia Std" font-size="16" transform="translate(0 191)">
        <text>
          <tspan x="21.231" y="12">‘NUMBER</tspan>
        </text>
        <text>
          <tspan x="10.911" y="35.2">OF PEOPLE</tspan>
        </text>
        <text>
          <tspan x=".031" y="58.4">IN A GROUP’</tspan>
        </text>
        <text>
          <tspan x="45.119" y="81.6">SCALE</tspan>
        </text>
      </g>
    </g>
  </g>
</svg>
