<svg id="Layer_1" data-name="Layer 1" xmlns="http://www.w3.org/2000/svg" xmlns:xlink="http://www.w3.org/1999/xlink" viewBox="0 0 186.75 152.19"><defs><style>.cls-1,.cls-2,.cls-4,.cls-5{fill:none;}.cls-2{clip-rule:evenodd;}.cls-3{clip-path:url(#clip-path);}.cls-4{stroke:#807160;stroke-dasharray:3 3;opacity:0.68;}.cls-4,.cls-5{stroke-miterlimit:10;}.cls-5{stroke:#5d5246;stroke-linecap:round;stroke-width:2.2px;}.cls-6{clip-path:url(#clip-path-2);}.cls-7{isolation:isolate;}.cls-8{clip-path:url(#clip-path-4);}.cls-9{clip-path:url(#clip-path-5);}.cls-10{clip-path:url(#clip-path-6);}.cls-11{fill:#807160;}.cls-12{clip-path:url(#clip-path-7);}.cls-13{clip-path:url(#clip-path-8);}.cls-14{clip-path:url(#clip-path-9);}.cls-15{clip-path:url(#clip-path-10);}.cls-16{font-size:22px;}.cls-16,.cls-17{fill:#3d342b;font-family:UtopiaStd-Regular, Utopia Std;}.cls-17{font-size:16px;}</style><clipPath id="clip-path" transform="translate(3.64 -3.8)"><rect class="cls-1" x="-90" y="-109" width="360" height="667"/></clipPath><clipPath id="clip-path-2" transform="translate(3.64 -3.8)"><rect class="cls-1" x="1.36" y="69.32" width="9.06" height="20.71"/></clipPath><clipPath id="clip-path-4" transform="translate(3.64 -3.8)"><rect class="cls-1" x="-2" y="69" width="13" height="22"/></clipPath><clipPath id="clip-path-5" transform="translate(3.64 -3.8)"><path class="cls-2" d="M7.89,79.74C-1.46,80.83,2,90,2,90S1.43,83.13,9.19,80a.63.63,0,0,0,1.23-.18.65.65,0,0,0-.62-.67.62.62,0,0,0-.6.46c-7.7-3.35-7-10.24-7-10.24s-3.61,9.13,5.71,10.42"/></clipPath><clipPath id="clip-path-6" transform="translate(3.64 -3.8)"><rect class="cls-1" x="1" y="69" width="10" height="22"/></clipPath><clipPath id="clip-path-7" transform="translate(3.64 -3.8)"><rect class="cls-1" x="169.05" y="69.32" width="9.06" height="20.71"/></clipPath><clipPath id="clip-path-8" transform="translate(3.64 -3.8)"><rect class="cls-1" x="169" y="69" width="12" height="22"/></clipPath><clipPath id="clip-path-9" transform="translate(3.64 -3.8)"><path class="cls-2" d="M171.58,79.74c9.34,1.09,5.91,10.29,5.91,10.29s.54-6.9-7.22-10.08a.62.62,0,0,1-.59.47.66.66,0,0,1,0-1.32.62.62,0,0,1,.6.46c7.7-3.35,7-10.24,7-10.24s3.61,9.13-5.71,10.42"/></clipPath><clipPath id="clip-path-10" transform="translate(3.64 -3.8)"><rect class="cls-1" x="169" y="69" width="10" height="22"/></clipPath></defs><g class="cls-3"><path class="cls-4" d="M170,80.5C170,42.75,92.45,20.1,8,5" transform="translate(3.64 -3.8)"/><path class="cls-4" d="M170,80c0,37.75-77.55,60.4-162,75.5" transform="translate(3.64 -3.8)"/><path class="cls-4" d="M10,80.5C10,42.75,8.09,20.1,6,5" transform="translate(3.64 -3.8)"/><path class="cls-4" d="M10,80c0,37.75-1.91,60.4-4,75.5" transform="translate(3.64 -3.8)"/><line class="cls-5" x1="13.14" y1="75.7" x2="173.14" y2="75.7"/></g><g class="cls-6"><g class="cls-3"><g class="cls-7"><g class="cls-8"><g class="cls-9"><g class="cls-10"><rect class="cls-11" y="60.52" width="19.06" height="30.71"/></g></g></g></g></g></g><g class="cls-12"><g class="cls-7"><g class="cls-13"><g class="cls-14"><g class="cls-15"><rect class="cls-11" x="167.69" y="60.52" width="19.06" height="30.71"/></g></g></g></g></g><g class="cls-3"><text class="cls-16" transform="translate(160.14 106.2)">82</text><text class="cls-16" transform="translate(7.64 106.2)">1</text><text class="cls-17" transform="translate(56.88 13.2)">‘JOB TITLE </text><text class="cls-17" transform="translate(43.19 33.2)">CHARACTERS’ </text><text class="cls-17" transform="translate(71.44 53.2)">SCALE </text></g></svg>