<svg id="Layer_1" data-name="Layer 1" xmlns="http://www.w3.org/2000/svg" xmlns:xlink="http://www.w3.org/1999/xlink" viewBox="0 0 209.5 337.81"><defs><style>.cls-1,.cls-17,.cls-2,.cls-5{fill:none;}.cls-2{clip-rule:evenodd;}.cls-3{clip-path:url(#clip-path);}.cls-4{font-size:16px;}.cls-16,.cls-4{fill:#3d342b;font-family:UtopiaStd-Regular, Utopia Std;}.cls-5{stroke:#5d5246;stroke-linecap:round;stroke-width:2.2px;}.cls-17,.cls-5{stroke-miterlimit:10;}.cls-6{clip-path:url(#clip-path-2);}.cls-7{isolation:isolate;}.cls-8{clip-path:url(#clip-path-3);}.cls-9{clip-path:url(#clip-path-4);}.cls-10{clip-path:url(#clip-path-5);}.cls-11{fill:#807160;}.cls-12{clip-path:url(#clip-path-6);}.cls-13{clip-path:url(#clip-path-8);}.cls-14{clip-path:url(#clip-path-9);}.cls-15{clip-path:url(#clip-path-10);}.cls-16{font-size:22px;}.cls-17{stroke:#807160;stroke-dasharray:3 3;opacity:0.68;}.cls-18{clip-path:url(#clip-path-12);}.cls-19{clip-path:url(#clip-path-13);}.cls-20{clip-path:url(#clip-path-14);}.cls-21{clip-path:url(#clip-path-15);}.cls-22{clip-path:url(#clip-path-16);}.cls-23{clip-path:url(#clip-path-17);}.cls-24{clip-path:url(#clip-path-18);}.cls-25{clip-path:url(#clip-path-19);}.cls-26{clip-path:url(#clip-path-21);}.cls-27{clip-path:url(#clip-path-22);}.cls-28{clip-path:url(#clip-path-23);}.cls-29{clip-path:url(#clip-path-24);}.cls-30{clip-path:url(#clip-path-25);}.cls-31{clip-path:url(#clip-path-26);}.cls-32{clip-path:url(#clip-path-27);}.cls-33{clip-path:url(#clip-path-28);}</style><clipPath id="clip-path" transform="translate(-4 -0.56)"><rect class="cls-1" x="-85" y="-299" width="360" height="667"/></clipPath><clipPath id="clip-path-2" transform="translate(-4 -0.56)"><rect class="cls-1" x="47.81" y="53.26" width="7.41" height="16.94"/></clipPath><clipPath id="clip-path-3" transform="translate(-4 -0.56)"><rect class="cls-1" x="47" y="53" width="11" height="18"/></clipPath><clipPath id="clip-path-4" transform="translate(-4 -0.56)"><path class="cls-2" d="M49.88,61.79c7.65.89,4.84,8.42,4.84,8.42s.44-5.65-5.91-8.25a.51.51,0,0,1-1-.15.53.53,0,0,1,.51-.55.52.52,0,0,1,.49.38c6.3-2.74,5.74-8.38,5.74-8.38s3,7.47-4.67,8.53"/></clipPath><clipPath id="clip-path-5" transform="translate(-4 -0.56)"><rect class="cls-1" x="47" y="53" width="9" height="18"/></clipPath><clipPath id="clip-path-6" transform="translate(-4 -0.56)"><rect class="cls-1" x="21.25" y="53.26" width="7.41" height="16.94"/></clipPath><clipPath id="clip-path-8" transform="translate(-4 -0.56)"><rect class="cls-1" x="18" y="53" width="11" height="18"/></clipPath><clipPath id="clip-path-9" transform="translate(-4 -0.56)"><path class="cls-2" d="M26.59,61.79c-7.65.89-4.84,8.42-4.84,8.42s-.44-5.65,5.9-8.25a.51.51,0,0,0,1-.15.53.53,0,0,0-.51-.55.52.52,0,0,0-.49.38c-6.3-2.74-5.75-8.38-5.75-8.38S19,60.73,26.59,61.79"/></clipPath><clipPath id="clip-path-10" transform="translate(-4 -0.56)"><rect class="cls-1" x="21" y="53" width="8" height="18"/></clipPath><clipPath id="clip-path-12" transform="translate(-4 -0.56)"><rect class="cls-1" x="163.7" y="16.63" width="20.71" height="9.06"/></clipPath><clipPath id="clip-path-13" transform="translate(-4 -0.56)"><rect class="cls-1" x="163" y="13" width="22" height="13"/></clipPath><clipPath id="clip-path-14" transform="translate(-4 -0.56)"><path class="cls-2" d="M174,23.16c-1.08-9.35-10.29-5.92-10.29-5.92s6.9-.54,10.08,7.22a.63.63,0,0,0-.47.59.67.67,0,1,0,.87-.59c3.34-7.69,10.23-7,10.23-7s-9.13-3.61-10.42,5.72"/></clipPath><clipPath id="clip-path-15" transform="translate(-4 -0.56)"><rect class="cls-1" x="163" y="16" width="22" height="10"/></clipPath><clipPath id="clip-path-16" transform="translate(-4 -0.56)"><rect class="cls-1" x="163.7" y="324.32" width="20.71" height="9.06"/></clipPath><clipPath id="clip-path-17" transform="translate(-4 -0.56)"><rect class="cls-1" x="163" y="324" width="22" height="13"/></clipPath><clipPath id="clip-path-18" transform="translate(-4 -0.56)"><path class="cls-2" d="M174,326.84c-1.08,9.35-10.29,5.92-10.29,5.92s6.9.54,10.08-7.22a.63.63,0,0,1-.47-.59.67.67,0,1,1,.87.59c3.34,7.69,10.23,7,10.23,7s-9.13,3.61-10.42-5.72"/></clipPath><clipPath id="clip-path-19" transform="translate(-4 -0.56)"><rect class="cls-1" x="163" y="324" width="22" height="10"/></clipPath><clipPath id="clip-path-21" transform="translate(-4 -0.56)"><rect class="cls-1" x="145.03" y="189.58" width="16.94" height="7.41"/></clipPath><clipPath id="clip-path-22" transform="translate(-4 -0.56)"><rect class="cls-1" x="145" y="189" width="17" height="11"/></clipPath><clipPath id="clip-path-23" transform="translate(-4 -0.56)"><path class="cls-2" d="M153.45,191.65c-.89,7.64-8.42,4.84-8.42,4.84s5.64.44,8.24-5.91a.51.51,0,0,1,.15-1,.51.51,0,0,1,.18,1c2.73,6.29,8.37,5.74,8.37,5.74s-7.47,3-8.52-4.67"/></clipPath><clipPath id="clip-path-24" transform="translate(-4 -0.56)"><rect class="cls-1" x="145" y="189" width="17" height="8"/></clipPath><clipPath id="clip-path-25" transform="translate(-4 -0.56)"><rect class="cls-1" x="145.03" y="153.01" width="16.94" height="7.41"/></clipPath><clipPath id="clip-path-26" transform="translate(-4 -0.56)"><rect class="cls-1" x="145" y="150" width="17" height="11"/></clipPath><clipPath id="clip-path-27" transform="translate(-4 -0.56)"><path class="cls-2" d="M153.45,158.35c-.89-7.64-8.42-4.84-8.42-4.84s5.64-.44,8.24,5.91a.51.51,0,0,0,.15,1,.51.51,0,0,0,.18-1c2.73-6.29,8.37-5.74,8.37-5.74s-7.47-3-8.52,4.67"/></clipPath><clipPath id="clip-path-28" transform="translate(-4 -0.56)"><rect class="cls-1" x="145" y="153" width="17" height="8"/></clipPath></defs><g class="cls-3"><text class="cls-4" transform="translate(2 101.44)">‘PEOPLE </text><text class="cls-4" transform="translate(2 121.44)"><tspan xml:space="preserve">HOLDING  </tspan></text><text class="cls-4" transform="translate(2 141.44)">THE SAME </text><text class="cls-4" transform="translate(2 161.44)">JOB TITLE’</text><text class="cls-4" transform="translate(2 181.44)">SCALE</text><line class="cls-5" x1="24.5" y1="60.94" x2="44.5" y2="60.94"/></g><g class="cls-6"><g class="cls-7"><g class="cls-8"><g class="cls-9"><g class="cls-10"><rect class="cls-11" x="38.81" y="47.7" width="17.41" height="26.94"/></g></g></g></g></g><g class="cls-12"><g class="cls-3"><g class="cls-7"><g class="cls-13"><g class="cls-14"><g class="cls-15"><rect class="cls-11" x="12.25" y="47.7" width="17.41" height="26.94"/></g></g></g></g></g></g><g class="cls-3"><text class="cls-16" transform="translate(0 68.44)">1</text><text class="cls-16" transform="translate(60 68.44)">62</text><path class="cls-17" d="M23.38,85.55c3.36-7,5.09-17.19,4.31-28.43A69.15,69.15,0,0,0,23.85,38.4" transform="translate(-4 -0.56)"/><path class="cls-17" d="M6,126c22.42-12.5,43-31.25,43-62.5a61.18,61.18,0,0,0-5.13-25.09C36.39,21.48,21.64,9.72,6,1" transform="translate(-4 -0.56)"/><line class="cls-5" x1="170.23" y1="24.2" x2="170.23" y2="324.2"/></g><g class="cls-18"><g class="cls-7"><g class="cls-19"><g class="cls-20"><g class="cls-21"><rect class="cls-11" x="154.7" y="11.06" width="30.71" height="19.06"/></g></g></g></g></g><g class="cls-22"><g class="cls-7"><g class="cls-23"><g class="cls-24"><g class="cls-25"><rect class="cls-11" x="154.7" y="318.75" width="30.71" height="19.06"/></g></g></g></g></g><g class="cls-3"><path class="cls-17" d="M197,176c0-76.5-11-122.4-23-153" transform="translate(-4 -0.56)"/><path class="cls-17" d="M197,174c0,76.5-11,122.4-23,153" transform="translate(-4 -0.56)"/><line class="cls-5" x1="149.73" y1="159.7" x2="149.73" y2="189.7"/></g><g class="cls-26"><g class="cls-7"><g class="cls-27"><g class="cls-28"><g class="cls-29"><rect class="cls-11" x="136.03" y="184.01" width="26.94" height="17.41"/></g></g></g></g></g><g class="cls-30"><g class="cls-7"><g class="cls-31"><g class="cls-32"><g class="cls-33"><rect class="cls-11" x="136.03" y="147.45" width="26.94" height="17.41"/></g></g></g></g></g><g class="cls-3"><path class="cls-17" d="M153,191c4.42,0,8-6.94,8-15.5s-3.58-15.5-8-15.5" transform="translate(-4 -0.56)"/><text class="cls-16" transform="translate(176.5 181.44)">175</text><text class="cls-16" transform="translate(120.5 181.44)">30</text><text class="cls-4" transform="translate(83.6 222.44)">‘NUMBER </text><text class="cls-4" transform="translate(72.94 242.44)">OF PEOPLE </text><text class="cls-4" transform="translate(62.62 262.44)">IN A GROUP’ </text><text class="cls-4" transform="translate(106.59 282.44)">SCALE </text></g></svg>