<?xml version="1.0" encoding="utf-8"?>
<!-- Generator: Adobe Illustrator 25.0.1, SVG Export Plug-In . SVG Version: 6.00 Build 0)  -->
<svg version="1.1" id="Layer_1" xmlns="http://www.w3.org/2000/svg" xmlns:xlink="http://www.w3.org/1999/xlink" x="0px" y="0px"
	 viewBox="0 0 180 156" style="enable-background:new 0 0 180 156;" xml:space="preserve">
<style type="text/css">
	.st0{opacity:0.68;}
	.st1{fill:none;stroke:#807160;stroke-dasharray:3;}
	.st2{fill:none;stroke:#5D5246;stroke-width:2.2;stroke-linecap:round;}
	.st3{fill-rule:evenodd;clip-rule:evenodd;fill:#807160;}
	.st4{fill:#3D342B;}
	.st5{font-family:'UtopiaStd-Regular';}
	.st6{font-size:22px;}
	.st7{enable-background:new    ;}
</style>
<g id="Artboard">
	<g id="Mobile_Scales" transform="translate(-90.000000, -109.000000)">
		<g id="Char-Scale" transform="translate(90.000000, 109.000000)">
			<g id="arc" transform="translate(6.000000, 5.000000)" class="st0">
				<path id="Fill-1" class="st1" d="M164,75.5C164,37.8,86.5,15.1,2,0"/>
				<path id="Fill-1_1_" class="st1" d="M164,75c0,37.8-77.5,60.4-162,75.5"/>
				<path id="Fill-1_2_" class="st1" d="M4,75.5C4,37.8,2.1,15.1,0,0"/>
				<path id="Fill-1_3_" class="st1" d="M4,75c0,37.8-1.9,60.4-4,75.5"/>
			</g>
			<g id="scale" transform="translate(0.233333, 68.500000)">
				<line id="Line-2" class="st2" x1="9.3" y1="11" x2="169.3" y2="11"/>
				<g id="Group-3">
					
						<g transform="translate(6.000000, 11.176471) scale(-1, -1) rotate(90.000000) translate(-6.000000, -11.176471) translate(-5.000000, 6.000000)">
						<g id="Clip-2">
						</g>
						<path id="Fill-1_4_" class="st3" d="M10.9,6.8C9.8-2.5,0.6,0.9,0.6,0.9s6.9-0.5,10.1,7.2c-0.3,0.1-0.5,0.3-0.5,0.6
							s0.3,0.6,0.7,0.6s0.7-0.3,0.7-0.6s-0.2-0.5-0.5-0.6c3.3-7.7,10.2-7,10.2-7S12.2-2.5,10.9,6.8"/>
					</g>
				</g>
				<g id="Group-3_1_">
					
						<g transform="translate(173.000000, 11.176471) scale(1, -1) rotate(90.000000) translate(-173.000000, -11.176471) translate(162.000000, 6.000000)">
						<g id="Clip-2_1_">
						</g>
						<path id="Fill-1_5_" class="st3" d="M10.9,6.8C9.8-2.5,0.6,0.9,0.6,0.9s6.9-0.5,10.1,7.2c-0.3,0.1-0.5,0.3-0.5,0.6
							s0.3,0.6,0.7,0.6s0.7-0.3,0.7-0.6s-0.2-0.5-0.5-0.6c3.3-7.7,10.2-7,10.2-7S12.2-2.5,10.9,6.8"/>
					</g>
				</g>
			</g>
			<text transform="matrix(1 0 0 1 150.1886 107.6772)" class="st4 st5 st6">82</text>
			<text transform="matrix(1 0 0 1 4.8972 108.0002)" class="st4 st5 st6">1</text>
			<g class="st7">
				<path class="st4" d="M55.5,12.1c0,0.2,0.1,0.8,0.4,1.1c-0.2,0.2-0.9,0.5-1.3,0.5c-0.2-0.2-0.5-0.7-0.5-1c0-1.2,0.9-2.3,1.9-3.4
					l0.3,0.3C55.7,10.4,55.5,11.2,55.5,12.1z"/>
				<path class="st4" d="M61,18.9c0,1.6-0.2,2.8-1.6,3.4c-0.6,0.3-1.1,0.3-1.7,0.4l-0.1-0.4c0.5-0.1,0.8-0.3,1.1-0.7
					c0.4-0.4,0.6-1.2,0.6-2.7v-7c0-0.8,0-0.9-1.4-1v-0.5h4.3v0.5C61,11,61,11.1,61,11.9V18.9z"/>
				<path class="st4" d="M73.6,15.7c0,3.3-1.6,5.5-5.1,5.5c-3.4,0-5.1-2.2-5.1-5.5s1.6-5.5,5.1-5.5C71.9,10.2,73.6,12.4,73.6,15.7z
					 M65.3,15.7c0,2.2,0.6,4.9,3.2,4.9s3.3-2.7,3.3-4.9s-0.6-4.9-3.3-4.9C65.9,10.8,65.3,13.5,65.3,15.7z"/>
				<path class="st4" d="M79.4,10.4c1.7,0,3.5,0.4,3.5,2.4c0,1.3-0.9,2-2.3,2.3l0,0c1.5,0.2,2.8,0.8,2.8,2.6c0,1-0.4,1.7-0.9,2.2
					c-0.7,0.6-1.9,0.9-3.2,0.9H75v-0.5c1.3-0.1,1.3-0.1,1.3-1v-7.4c0-0.8,0-0.9-1.3-0.9v-0.6H79.4z M77.8,15h0.9
					c1.6,0,2.5-0.5,2.5-2s-1.1-2-2.3-1.9c-1.1,0-1.2,0.1-1.2,0.7L77.8,15L77.8,15z M77.8,19.2c0,0.9,0.2,1.2,1.3,1.2
					c1.3,0,2.5-0.6,2.5-2.4c0-1.7-1-2.4-2.9-2.4h-1L77.8,19.2L77.8,19.2z"/>
				<path class="st4" d="M93,19.4c0,0.7,0,0.8,0.9,0.9h0.8v0.6h-4.9v-0.5h0.8c0.8,0,0.9-0.3,0.9-0.9V11h-0.9c-1.7,0-2,0.4-2.2,2.1
					h-0.5v-2.7h8.8v2.7H96c-0.2-1.7-0.5-2.1-2.2-2.1H93V19.4z"/>
				<path class="st4" d="M100.3,19.4c0,0.8,0,0.9,1.3,1v0.5h-4.3v-0.5c1.3-0.1,1.3-0.1,1.3-1v-7.5c0-0.8,0-0.9-1.3-0.9v-0.6h4.3v0.5
					c-1.3,0.1-1.3,0.1-1.3,0.9V19.4z"/>
				<path class="st4" d="M107.7,19.4c0,0.7,0,0.8,0.9,0.9h0.8v0.6h-4.9v-0.5h0.8c0.8,0,0.9-0.3,0.9-0.9V11h-0.9
					c-1.7,0-2,0.4-2.2,2.1h-0.5v-2.7h8.8v2.7h-0.5c-0.2-1.7-0.5-2.1-2.2-2.1h-0.9v8.4H107.7z"/>
				<path class="st4" d="M115.1,19.1c0,1,0.2,1.3,1.9,1.3c1.6,0,2.4-0.3,2.7-2.4h0.5l-0.3,2.9h-7.8v-0.5c1.3-0.1,1.3-0.1,1.3-1v-7.5
					c0-0.8,0-0.9-1.3-0.9v-0.6h4.4v0.5c-1.4,0.1-1.4,0.1-1.4,0.9C115.1,11.8,115.1,19.1,115.1,19.1z"/>
				<path class="st4" d="M122.3,11.9c0-0.8,0-0.9-1.3-0.9v-0.6h7.7v2.5h-0.5c-0.2-1.6-0.6-2-2.3-2h-1.4c-0.5,0-0.5,0.1-0.5,0.5V15h2
					c1.3,0,1.3-0.4,1.5-1.4h0.5V17h-0.5c-0.1-1-0.2-1.4-1.5-1.4h-2v3.3c0,1,0.2,1.3,1.9,1.3c1.9,0,2.6-0.4,2.9-2.2h0.5l-0.3,2.8h-8
					v-0.5c1.3-0.1,1.3-0.1,1.3-1V11.9L122.3,11.9z"/>
			</g>
			<g class="st7">
				<path class="st4" d="M49.4,37.9l-0.2,2.6c-0.7,0.4-2.1,0.7-3.3,0.7c-3.6,0-5.5-1.7-5.5-5.4c0-1.7,0.5-3,1.4-4
					c0.9-1,2.4-1.6,4.3-1.6c1.3,0,2.5,0.3,3.2,0.6v2.4h-0.5c-0.3-1.8-1.3-2.5-2.8-2.5c-2.8,0-3.7,2.5-3.7,4.9c0,1.8,0.6,4.9,3.7,4.9
					c2,0,2.7-1.1,3.1-2.7h0.3V37.9z"/>
				<path class="st4" d="M53.5,35.7v3.7c0,0.8,0,0.9,1.4,1v0.5h-4.3v-0.5c1.3-0.1,1.3-0.1,1.3-1v-7.5c0-0.8,0-0.9-1.3-0.9v-0.5h4.3
					V31c-1.3,0.1-1.4,0.1-1.4,0.9v3.2h5.2v-3.2c0-0.8,0-0.9-1.3-0.9v-0.5h4.3V31c-1.3,0.1-1.3,0.1-1.3,0.9v7.5c0,0.8,0,0.9,1.3,1
					v0.5h-4.3v-0.5c1.3-0.1,1.3-0.1,1.3-1v-3.7H53.5z"/>
				<path class="st4" d="M68.4,40.9v-0.5l0.7-0.1c0.5,0,0.5-0.2,0.4-0.6c-0.3-0.7-0.8-2.3-1-2.8h-3.4c-0.3,1.1-0.7,1.9-0.9,2.8
					c-0.1,0.4-0.1,0.5,0.4,0.6l0.8,0.1v0.5H62v-0.5c0.9,0,1.1-0.2,1.4-1c1.1-2.8,2.2-6,3.2-9h1.2c0.8,2.5,2.4,6.9,3.2,9.1
					c0.3,0.8,0.4,0.8,1.3,0.9v0.5H68.4z M66.8,31.9L66.8,31.9c-0.5,1.3-1,2.9-1.5,4.4h3C67.9,35.2,67.1,32.9,66.8,31.9z"/>
				<path class="st4" d="M75.8,39.4c0,0.8,0,0.9,1.3,1v0.5h-4.3v-0.5c1.3-0.1,1.3-0.1,1.3-1v-7.5c0-0.8,0-0.9-1.3-0.9v-0.5h4.7
					c2.6,0,3.3,1.2,3.3,2.6c0,1.4-1,2.3-2.4,2.6l0,0c1.6,0.4,2,1.5,2.2,2.8c0.1,1,0.4,1.8,1.6,2v0.4h-1.3c-0.9,0-1.5-0.3-1.7-1.3
					c-0.2-0.7-0.3-1.9-0.4-2.3c-0.3-1.1-1-1.4-2-1.4h-1C75.8,35.9,75.8,39.4,75.8,39.4z M75.8,35.3h1.1c1.5,0,2.2-0.6,2.2-2.2
					c0-2-1.2-2.2-2.4-2.2c-1,0-1,0.1-1,0.8v3.6C75.7,35.3,75.8,35.3,75.8,35.3z"/>
				<path class="st4" d="M88.4,40.9v-0.5l0.7-0.1c0.5,0,0.5-0.2,0.4-0.6c-0.3-0.7-0.8-2.3-1-2.8h-3.4c-0.3,1.1-0.7,1.9-0.9,2.8
					c-0.1,0.4-0.1,0.5,0.4,0.6l0.8,0.1v0.5H82v-0.5c0.9,0,1.1-0.2,1.4-1c1.1-2.8,2.2-6,3.2-9h1.2c0.8,2.5,2.4,6.9,3.2,9.1
					c0.3,0.8,0.4,0.8,1.3,0.9v0.5H88.4z M86.8,31.9L86.8,31.9c-0.5,1.3-1,2.9-1.5,4.4h3C87.9,35.2,87.1,32.9,86.8,31.9z"/>
				<path class="st4" d="M102.1,37.9l-0.2,2.6c-0.7,0.4-2.1,0.7-3.3,0.7c-3.6,0-5.5-1.7-5.5-5.4c0-1.7,0.5-3,1.4-4
					c0.9-1,2.4-1.6,4.3-1.6c1.3,0,2.5,0.3,3.2,0.6v2.4h-0.5c-0.3-1.8-1.3-2.5-2.8-2.5c-2.8,0-3.7,2.5-3.7,4.9c0,1.8,0.6,4.9,3.7,4.9
					c2,0,2.7-1.1,3.1-2.7h0.3V37.9z"/>
				<path class="st4" d="M108.3,39.4c0,0.7,0,0.8,0.9,0.9h0.8v0.6h-5v-0.5h0.8c0.8,0,0.9-0.3,0.9-0.9v-8.4h-0.9
					c-1.7,0-2,0.4-2.2,2.1h-0.5v-2.7h8.8v2.7h-0.5c-0.2-1.7-0.5-2.1-2.2-2.1h-0.9C108.3,31.1,108.3,39.4,108.3,39.4z"/>
				<path class="st4" d="M114.1,31.9c0-0.8,0-0.9-1.3-0.9v-0.5h7.7V33H120c-0.2-1.6-0.6-2-2.3-2h-1.4c-0.5,0-0.5,0.1-0.5,0.5v3.6h2
					c1.3,0,1.3-0.4,1.5-1.4h0.5v3.4h-0.5c-0.1-1-0.2-1.4-1.5-1.4h-2V39c0,1,0.2,1.3,1.9,1.3c1.9,0,2.6-0.4,2.9-2.2h0.5l-0.3,2.8h-8
					v-0.5c1.3-0.1,1.3-0.1,1.3-1C114.1,39.4,114.1,31.9,114.1,31.9z"/>
				<path class="st4" d="M124.9,39.4c0,0.8,0,0.9,1.3,1v0.5h-4.3v-0.5c1.3-0.1,1.3-0.1,1.3-1v-7.5c0-0.8,0-0.9-1.3-0.9v-0.5h4.7
					c2.6,0,3.3,1.2,3.3,2.6c0,1.4-1,2.3-2.4,2.6l0,0c1.6,0.4,2,1.5,2.2,2.8c0.1,1,0.4,1.8,1.6,2v0.4H130c-0.9,0-1.5-0.3-1.7-1.3
					c-0.2-0.7-0.3-1.9-0.4-2.3c-0.3-1.1-1-1.4-2-1.4h-1V39.4z M124.9,35.3h1.1c1.5,0,2.2-0.6,2.2-2.2c0-2-1.2-2.2-2.4-2.2
					c-1,0-1,0.1-1,0.8v3.6C124.8,35.3,124.9,35.3,124.9,35.3z"/>
				<path class="st4" d="M137.7,33.1c-0.3-1.5-1-2.3-2.3-2.3c-1.2,0-1.9,0.8-1.9,1.9c0,1.2,1.2,1.8,2.2,2.1c1.8,0.7,3.1,1.3,3.1,3.2
					c0,1.6-1,3.1-3.7,3.1c-1.1,0-2.3-0.3-3-0.9l-0.2-2.4h0.5c0.4,1.7,1.3,2.8,2.7,2.8c1.3,0,2.1-0.7,2.1-2c0-1.2-1.3-1.9-2.4-2.3
					c-1.6-0.6-2.8-1.2-2.8-3.1c0-2,1.6-3,3.5-3c1,0,2.1,0.3,2.7,0.6v2.3H137.7z"/>
				<path class="st4" d="M141.1,30.8c0-0.2-0.2-0.8-0.4-1c0.2-0.2,0.9-0.5,1.3-0.5c0.2,0.2,0.5,0.7,0.5,1c0,1.2-0.9,2.3-1.9,3.4
					l-0.3-0.3C140.9,32.6,141.1,31.8,141.1,30.8z"/>
			</g>
			<g class="st7">
				<path class="st4" d="M74.3,53.1c-0.3-1.5-1-2.3-2.3-2.3c-1.2,0-1.9,0.8-1.9,1.9c0,1.2,1.2,1.8,2.2,2.1c1.8,0.7,3.1,1.3,3.1,3.2
					c0,1.6-1,3.1-3.7,3.1c-1.1,0-2.3-0.3-3-0.9l-0.2-2.4H69c0.4,1.7,1.3,2.8,2.7,2.8c1.3,0,2.1-0.7,2.1-2c0-1.2-1.3-1.9-2.4-2.3
					c-1.6-0.6-2.8-1.2-2.8-3.1c0-2,1.6-3,3.5-3c1,0,2.1,0.3,2.7,0.6v2.3C74.8,53.1,74.3,53.1,74.3,53.1z"/>
				<path class="st4" d="M85.8,57.9l-0.2,2.6c-0.7,0.4-2.1,0.7-3.3,0.7c-3.6,0-5.5-1.7-5.5-5.4c0-1.7,0.5-3,1.4-4s2.4-1.6,4.3-1.6
					c1.3,0,2.5,0.3,3.2,0.6v2.4h-0.5c-0.3-1.8-1.3-2.5-2.8-2.5c-2.8,0-3.7,2.5-3.7,4.9c0,1.8,0.6,4.9,3.7,4.9c2,0,2.7-1.1,3.1-2.7
					L85.8,57.9L85.8,57.9z"/>
				<path class="st4" d="M92.7,60.9v-0.5l0.7-0.1c0.5,0,0.5-0.2,0.4-0.6c-0.3-0.7-0.8-2.3-1-2.8h-3.4c-0.3,1.1-0.7,1.9-0.9,2.8
					c-0.1,0.4-0.1,0.5,0.4,0.6l0.8,0.1v0.5h-3.3v-0.5c0.9,0,1.1-0.2,1.4-1c1.1-2.8,2.2-6,3.2-9h1.2c0.8,2.5,2.4,6.9,3.2,9.1
					c0.3,0.8,0.4,0.8,1.3,0.9v0.5H92.7z M91.1,51.9L91.1,51.9c-0.5,1.3-1,2.9-1.5,4.4h3C92.3,55.2,91.5,52.9,91.1,51.9z"/>
				<path class="st4" d="M100.1,59.1c0,1,0.2,1.3,1.9,1.3c1.6,0,2.4-0.3,2.7-2.4h0.5l-0.2,2.9h-7.8v-0.5c1.3-0.1,1.3-0.1,1.3-1v-7.5
					c0-0.8,0-0.9-1.3-0.9v-0.5h4.4V51c-1.4,0.1-1.4,0.1-1.4,0.9L100.1,59.1L100.1,59.1z"/>
				<path class="st4" d="M107.3,51.9c0-0.8,0-0.9-1.3-0.9v-0.5h7.7V53h-0.5c-0.2-1.6-0.6-2-2.3-2h-1.4c-0.5,0-0.5,0.1-0.5,0.5v3.6h2
					c1.3,0,1.3-0.4,1.5-1.4h0.5v3.4h-0.5c-0.1-1-0.2-1.4-1.5-1.4h-2V59c0,1,0.2,1.3,1.9,1.3c1.9,0,2.6-0.4,2.9-2.2h0.5l-0.3,2.8h-8
					v-0.5c1.3-0.1,1.3-0.1,1.3-1V51.9z"/>
			</g>
		</g>
	</g>
</g>
</svg>
