<svg xmlns="http://www.w3.org/2000/svg" xmlns:xlink="http://www.w3.org/1999/xlink" width="242" height="335"><defs><path id="a" d="M.529.247h16.942v7.412H.529z"/><path id="c" d="M.529.247h16.942v7.412H.529z"/><path id="e" d="M.647.302h20.706v9.059H.647z"/><path id="g" d="M.647.302h20.706v9.059H.647z"/><path id="i" d="M.529.247h16.942v7.412H.529z"/><path id="k" d="M.529.247h16.942v7.412H.529z"/></defs><g fill="none" fill-rule="evenodd"><text fill="#3D342B" font-family="UtopiaStd-Regular, Utopia Std" font-size="16" transform="translate(27 1)"><tspan x="6" y="96">‘PEOPLE </tspan> <tspan x="6" y="120.2">HOLDING </tspan> <tspan x="6" y="144.4">THE SAME </tspan> <tspan x="6" y="168.6">JOB TITLE’</tspan> <tspan x="6" y="192.8">SCALE</tspan></text><path stroke="#5D5246" stroke-linecap="round" stroke-width="2.2" d="M55.5 61.5h20"/><g transform="matrix(0 -1 -1 0 82.468 70.735)"><mask id="b" fill="#fff"><use xlink:href="#a"/></mask><path fill="#231F20" d="M8.948 5.59C8.058-2.057.53.75.53.75S6.175.308 8.775 6.657a.518.518 0 00-.387.485c-.003.282.238.514.538.517.3.003.545-.224.548-.507a.517.517 0 00-.376-.492C11.836.363 17.471.915 17.471.915S10.005-2.038 8.948 5.59" mask="url(#b)"/></g><g transform="rotate(-90 59.367 11.368)"><mask id="d" fill="#fff"><use xlink:href="#c"/></mask><path fill="#231F20" d="M8.948 5.59C8.058-2.057.53.75.53.75S6.175.308 8.775 6.657a.518.518 0 00-.387.485c-.003.282.238.514.538.517.3.003.545-.224.548-.507a.517.517 0 00-.376-.492C11.836.363 17.471.915 17.471.915S10.005-2.038 8.948 5.59" mask="url(#d)"/></g><text fill="#3D342B" font-family="UtopiaStd-Regular, Utopia Std" font-size="22" transform="translate(27 1)"><tspan x=".7" y="59.992">1</tspan></text><text fill="#3D342B" font-family="UtopiaStd-Regular, Utopia Std" font-size="22" transform="translate(27 1)"><tspan x="64" y="65">62</tspan></text><g stroke="#807160" stroke-dasharray="3" opacity=".68"><path d="M50.384 85.552c3.36-6.96 5.09-17.19 4.304-28.436-.483-6.913-1.855-13.313-3.838-18.711"/><path d="M33 126c22.417-12.5 43-31.25 43-62.5 0-9.447-1.881-17.752-5.126-25.088C63.387 21.484 48.64 9.721 33 1"/></g><g><path stroke="#5D5246" stroke-linecap="round" stroke-width="2.2" d="M201.233 24.767v300"/><g transform="translate(190.057 16.324)"><mask id="f" fill="#fff"><use xlink:href="#e"/></mask><path fill="#231F20" d="M10.937 6.832C9.849-2.514.647.917.647.917s6.9-.541 10.077 7.219a.633.633 0 00-.472.593c-.004.345.29.628.657.632.367.004.666-.274.67-.62a.632.632 0 00-.459-.601C14.466.443 21.353 1.119 21.353 1.119s-9.125-3.61-10.416 5.713" mask="url(#f)"/></g><g transform="matrix(1 0 0 -1 190.057 333.676)"><mask id="h" fill="#fff"><use xlink:href="#g"/></mask><path fill="#231F20" d="M10.937 6.832C9.849-2.514.647.917.647.917s6.9-.541 10.077 7.219a.633.633 0 00-.472.593c-.004.345.29.628.657.632.367.004.666-.274.67-.62a.632.632 0 00-.459-.601C14.466.443 21.353 1.119 21.353 1.119s-9.125-3.61-10.416 5.713" mask="url(#h)"/></g><g stroke="#807160" stroke-dasharray="3" opacity=".68"><path d="M224 176c0-76.5-11.01-122.4-23-153M224 174c0 76.5-11.01 122.4-23 153"/></g><path stroke="#5D5246" stroke-linecap="round" stroke-width="2.2" d="M180.733 160.267v30"/><g transform="matrix(1 0 0 -1 171.498 197.235)"><mask id="j" fill="#fff"><use xlink:href="#i"/></mask><path fill="#231F20" d="M8.948 5.59C8.058-2.057.53.75.53.75S6.175.308 8.775 6.657a.518.518 0 00-.387.485c-.003.282.238.514.538.517.3.003.545-.224.548-.507a.517.517 0 00-.376-.492C11.836.363 17.471.915 17.471.915S10.005-2.038 8.948 5.59" mask="url(#j)"/></g><g transform="translate(171.498 152.765)"><mask id="l" fill="#fff"><use xlink:href="#k"/></mask><path fill="#231F20" d="M8.948 5.59C8.058-2.057.53.75.53.75S6.175.308 8.775 6.657a.518.518 0 00-.387.485c-.003.282.238.514.538.517.3.003.545-.224.548-.507a.517.517 0 00-.376-.492C11.836.363 17.471.915 17.471.915S10.005-2.038 8.948 5.59" mask="url(#l)"/></g><path stroke="#807160" stroke-dasharray="3" d="M180 191c4.418 0 8-6.94 8-15.5 0-8.56-3.582-15.5-8-15.5" opacity=".68"/><text fill="#3D342B" font-family="UtopiaStd-Regular, Utopia Std" font-size="22" transform="translate(88.233 15)"><tspan x="118.767" y="164">175</tspan></text><text fill="#3D342B" font-family="UtopiaStd-Regular, Utopia Std" font-size="22" transform="translate(88.233 15)"><tspan x="62.767" y="164">30</tspan></text><text fill="#3D342B" font-family="UtopiaStd-Regular, Utopia Std" font-size="16" transform="translate(88.233 15)"><tspan x="26.367" y="203">‘NUMBER </tspan> <tspan x="15.711" y="227.2">OF PEOPLE </tspan> <tspan x="5.391" y="251.4">IN A GROUP’ </tspan> <tspan x="49.359" y="275.6">SCALE </tspan></text></g></g></svg>