<?xml version="1.0" encoding="utf-8"?>
<!-- Generator: Adobe Illustrator 25.0.1, SVG Export Plug-In . SVG Version: 6.00 Build 0)  -->
<svg version="1.1" id="Layer_1" xmlns="http://www.w3.org/2000/svg" xmlns:xlink="http://www.w3.org/1999/xlink" x="0px" y="0px"
	 viewBox="0 0 245 335" style="enable-background:new 0 0 245 335;" xml:space="preserve">
<style type="text/css">
	.st0{clip-path:url(#SVGID_2_);}
	.st1{fill:#3D342B;}
	.st2{clip-path:url(#SVGID_2_);fill:none;stroke:#5D5246;stroke-width:2.2;stroke-linecap:round;stroke-miterlimit:10;}
	.st3{clip-path:url(#SVGID_4_);enable-background:new    ;}
	.st4{clip-path:url(#SVGID_6_);}
	.st5{clip-path:url(#SVGID_8_);}
	.st6{clip-path:url(#SVGID_10_);fill:#807160;}
	.st7{clip-path:url(#SVGID_12_);enable-background:new    ;}
	.st8{clip-path:url(#SVGID_14_);}
	.st9{clip-path:url(#SVGID_16_);}
	.st10{clip-path:url(#SVGID_18_);fill:#807160;}
	.st11{clip-path:url(#SVGID_20_);}
	.st12{font-family:'UtopiaStd-Regular';}
	.st13{font-size:22px;}
	.st14{opacity:0.68;clip-path:url(#SVGID_20_);fill:none;stroke:#807160;stroke-miterlimit:10;stroke-dasharray:3,3;}
	.st15{clip-path:url(#SVGID_20_);fill:none;stroke:#5D5246;stroke-width:2.2;stroke-linecap:round;stroke-miterlimit:10;}
	.st16{clip-path:url(#SVGID_22_);enable-background:new    ;}
	.st17{clip-path:url(#SVGID_24_);}
	.st18{clip-path:url(#SVGID_26_);}
	.st19{clip-path:url(#SVGID_28_);fill:#807160;}
	.st20{clip-path:url(#SVGID_30_);enable-background:new    ;}
	.st21{clip-path:url(#SVGID_32_);}
	.st22{clip-path:url(#SVGID_34_);}
	.st23{clip-path:url(#SVGID_36_);fill:#807160;}
	.st24{opacity:0.68;clip-path:url(#SVGID_38_);fill:none;stroke:#807160;stroke-miterlimit:10;stroke-dasharray:3,3;}
	.st25{clip-path:url(#SVGID_38_);fill:none;stroke:#5D5246;stroke-width:2.2;stroke-linecap:round;stroke-miterlimit:10;}
	.st26{clip-path:url(#SVGID_40_);enable-background:new    ;}
	.st27{clip-path:url(#SVGID_42_);}
	.st28{clip-path:url(#SVGID_44_);}
	.st29{clip-path:url(#SVGID_46_);fill:#807160;}
	.st30{clip-path:url(#SVGID_48_);enable-background:new    ;}
	.st31{clip-path:url(#SVGID_50_);}
	.st32{clip-path:url(#SVGID_52_);}
	.st33{clip-path:url(#SVGID_54_);fill:#807160;}
	.st34{opacity:0.68;clip-path:url(#SVGID_56_);fill:none;stroke:#807160;stroke-miterlimit:10;stroke-dasharray:3,3;}
	.st35{clip-path:url(#SVGID_56_);}
	.st36{opacity:0;clip-path:url(#SVGID_56_);fill:none;stroke:#903227;stroke-miterlimit:10;}
</style>
<g>
	<defs>
		<rect id="SVGID_1_" x="-55" y="-299" width="360" height="667"/>
	</defs>
	<clipPath id="SVGID_2_">
		<use xlink:href="#SVGID_1_"  style="overflow:visible;"/>
	</clipPath>
	<g class="st0">
		<path class="st1" d="M38.2,93.2c0,0.2,0.1,0.8,0.4,1.1c-0.2,0.2-0.9,0.5-1.3,0.5c-0.2-0.2-0.5-0.7-0.5-1c0-1.2,0.9-2.3,1.9-3.4
			l0.3,0.3C38.5,91.5,38.2,92.3,38.2,93.2z"/>
		<path class="st1" d="M40.8,102v-0.5c1.3-0.1,1.3-0.1,1.3-1V93c0-0.8,0-0.9-1.3-1v-0.5H45c1.1,0,2,0.1,2.8,0.6
			c0.7,0.4,1.2,1.2,1.2,2.4c0,1.9-1.1,2.7-2.2,3.1c-0.6,0.2-1.2,0.2-1.8,0.2c-0.5,0-1-0.1-1.2-0.1v2.9c0,0.8,0,0.9,1.6,1v0.5H40.8z
			 M43.7,96.6c0,0.5,0.4,0.6,1.3,0.6c1.3,0,2.2-0.8,2.2-2.6c0-1.6-0.9-2.5-2.4-2.5c-1,0-1.1,0.1-1.1,0.6V96.6z"/>
		<path class="st1" d="M51.3,93c0-0.8,0-0.9-1.3-0.9v-0.5h7.7v2.5h-0.5c-0.2-1.6-0.6-2-2.3-2h-1.4c-0.5,0-0.5,0.1-0.5,0.5v3.6h2
			c1.3,0,1.3-0.4,1.5-1.4h0.5v3.4h-0.5c-0.1-1-0.2-1.4-1.5-1.4h-2v3.3c0,1,0.2,1.3,1.9,1.3c1.9,0,2.6-0.4,2.9-2.2h0.5L58,102h-8
			v-0.5c1.3-0.1,1.3-0.1,1.3-1V93z"/>
		<path class="st1" d="M69.6,96.8c0,3.3-1.6,5.5-5.1,5.5c-3.4,0-5.1-2.2-5.1-5.5c0-3.3,1.6-5.5,5.1-5.5C68,91.3,69.6,93.5,69.6,96.8
			z M61.3,96.8c0,2.2,0.6,4.9,3.2,4.9c2.7,0,3.3-2.7,3.3-4.9s-0.6-4.9-3.3-4.9C61.9,91.9,61.3,94.6,61.3,96.8z"/>
		<path class="st1" d="M70.9,102v-0.5c1.3-0.1,1.3-0.1,1.3-1V93c0-0.8,0-0.9-1.3-1v-0.5h4.3c1.1,0,2,0.1,2.8,0.6
			c0.7,0.4,1.2,1.2,1.2,2.4c0,1.9-1.1,2.7-2.2,3.1c-0.6,0.2-1.2,0.2-1.8,0.2c-0.5,0-1-0.1-1.2-0.1v2.9c0,0.8,0,0.9,1.6,1v0.5H70.9z
			 M73.8,96.6c0,0.5,0.4,0.6,1.3,0.6c1.3,0,2.2-0.8,2.2-2.6c0-1.6-0.9-2.5-2.4-2.5c-1,0-1.1,0.1-1.1,0.6V96.6z"/>
		<path class="st1" d="M83.1,100.2c0,1,0.2,1.3,1.9,1.3c1.6,0,2.4-0.3,2.7-2.4h0.5l-0.3,2.9h-7.8v-0.5c1.3-0.1,1.3-0.1,1.3-1V93
			c0-0.8,0-0.9-1.3-0.9v-0.5h4.4v0.5c-1.4,0.1-1.4,0.1-1.4,0.9V100.2z"/>
		<path class="st1" d="M90.3,93c0-0.8,0-0.9-1.3-0.9v-0.5h7.7v2.5h-0.5c-0.2-1.6-0.6-2-2.3-2h-1.4c-0.5,0-0.5,0.1-0.5,0.5v3.6h2
			c1.3,0,1.3-0.4,1.5-1.4h0.5v3.4h-0.5c-0.1-1-0.2-1.4-1.5-1.4h-2v3.3c0,1,0.2,1.3,1.9,1.3c1.9,0,2.6-0.4,2.9-2.2h0.5l-0.3,2.8h-8
			v-0.5c1.3-0.1,1.3-0.1,1.3-1V93z"/>
	</g>
	<g class="st0">
		<path class="st1" d="M39.5,116.8v3.7c0,0.8,0,0.9,1.4,1v0.5h-4.3v-0.5c1.3-0.1,1.3-0.1,1.3-1V113c0-0.8,0-0.9-1.3-0.9v-0.5h4.3
			v0.5c-1.3,0.1-1.4,0.1-1.4,0.9v3.2h5.2V113c0-0.8,0-0.9-1.3-0.9v-0.5h4.3v0.5c-1.3,0.1-1.3,0.1-1.3,0.9v7.5c0,0.8,0,0.9,1.3,1v0.5
			h-4.3v-0.5c1.3-0.1,1.3-0.1,1.3-1v-3.7H39.5z"/>
		<path class="st1" d="M59,116.8c0,3.3-1.6,5.5-5.1,5.5c-3.4,0-5.1-2.2-5.1-5.5c0-3.3,1.6-5.5,5.1-5.5C57.3,111.3,59,113.5,59,116.8
			z M50.6,116.8c0,2.2,0.6,4.9,3.2,4.9c2.7,0,3.3-2.7,3.3-4.9s-0.6-4.9-3.3-4.9C51.2,111.9,50.6,114.6,50.6,116.8z"/>
		<path class="st1" d="M63.2,120.2c0,1,0.2,1.3,1.9,1.3c1.6,0,2.4-0.3,2.7-2.4h0.5L68,122h-7.8v-0.5c1.3-0.1,1.3-0.1,1.3-1V113
			c0-0.8,0-0.9-1.3-0.9v-0.5h4.4v0.5c-1.4,0.1-1.4,0.1-1.4,0.9V120.2z"/>
		<path class="st1" d="M74.1,111.5c1.8,0,3.2,0.3,4.2,1.2c0.9,0.9,1.3,2.2,1.3,3.8c0,3.8-2.4,5.4-5.8,5.4h-4.7v-0.5
			c1.3-0.1,1.3-0.1,1.3-1V113c0-0.8,0-0.9-1.3-1v-0.5H74.1z M72,120.1c0,1.2,0.2,1.3,1.5,1.3c2.5,0,4.3-1,4.3-4.8
			c0-2.5-1-4.5-4.1-4.5c-1.6,0-1.7,0.1-1.7,0.8V120.1z"/>
		<path class="st1" d="M83.8,120.5c0,0.8,0,0.9,1.3,1v0.5h-4.3v-0.5c1.3-0.1,1.3-0.1,1.3-1V113c0-0.8,0-0.9-1.3-0.9v-0.5h4.3v0.5
			c-1.3,0.1-1.3,0.1-1.3,0.9V120.5z"/>
		<path class="st1" d="M94.6,122c-2.1-3-4.2-6-6.3-9h0v5.9c0,0.8,0,1.4,0.1,1.9c0.1,0.7,0.6,0.7,1.5,0.8v0.5h-3.7v-0.5
			c0.8-0.1,1.2-0.1,1.3-0.8c0.1-0.5,0.1-1.1,0.1-1.9V113c0-0.8,0-0.9-1.3-1v-0.5h3c1.7,2.4,3.8,5.5,5.8,8.3l0,0v-5.1
			c0-0.8,0-1.4-0.1-1.9c-0.1-0.7-0.6-0.7-1.6-0.8v-0.5h3.7v0.5c-0.8,0.1-1.2,0.1-1.3,0.8c-0.1,0.5-0.1,1.1-0.1,1.9v7.3H94.6z"/>
		<path class="st1" d="M107.4,121.6c-1,0.3-2.5,0.6-3.5,0.6c-1.3,0-2.7-0.2-3.8-1c-1.1-0.8-1.9-2.4-1.9-4.3c0-3.5,2-5.7,5.7-5.7
			c1.5,0,2.6,0.3,3.3,0.6v2.5h-0.5c-0.3-1.9-1.3-2.6-3-2.6c-2.9,0-3.7,2.5-3.7,4.9c0,1.8,0.6,5,4,5c0.5,0,0.9-0.1,1.3-0.2
			c0.3-0.1,0.5-0.3,0.5-0.8v-2.1c0-0.7-0.1-0.8-1.6-0.9v-0.5h4.2v0.5c-1,0.1-1.1,0.2-1.1,0.9V121.6z"/>
	</g>
	<g class="st0">
		<path class="st1" d="M41.5,140.5c0,0.7,0,0.8,0.9,0.9l0.8,0v0.5h-4.9v-0.5l0.8,0c0.8,0,0.9-0.3,0.9-0.9v-8.4h-0.9
			c-1.7,0-2,0.4-2.2,2.1h-0.5v-2.7h8.8v2.7h-0.5c-0.2-1.7-0.5-2.1-2.2-2.1h-0.9V140.5z"/>
		<path class="st1" d="M48.9,136.8v3.7c0,0.8,0,0.9,1.4,1v0.5H46v-0.5c1.3-0.1,1.3-0.1,1.3-1V133c0-0.8,0-0.9-1.3-0.9v-0.5h4.3v0.5
			c-1.3,0.1-1.4,0.1-1.4,0.9v3.2h5.2V133c0-0.8,0-0.9-1.3-0.9v-0.5H57v0.5c-1.3,0.1-1.3,0.1-1.3,0.9v7.5c0,0.8,0,0.9,1.3,1v0.5h-4.3
			v-0.5c1.3-0.1,1.3-0.1,1.3-1v-3.7H48.9z"/>
		<path class="st1" d="M59.4,133c0-0.8,0-0.9-1.3-0.9v-0.5h7.7v2.5h-0.5c-0.2-1.6-0.6-2-2.3-2h-1.4c-0.5,0-0.5,0.1-0.5,0.5v3.6h2
			c1.3,0,1.3-0.4,1.5-1.4h0.5v3.4h-0.5c-0.1-1-0.2-1.4-1.5-1.4h-2v3.3c0,1,0.2,1.3,1.9,1.3c1.9,0,2.6-0.4,2.9-2.2h0.5L66,142h-8
			v-0.5c1.3-0.1,1.3-0.1,1.3-1V133z"/>
		<path class="st1" d="M76.5,134.2c-0.3-1.5-1-2.3-2.3-2.3c-1.2,0-1.9,0.8-1.9,1.9c0,1.2,1.2,1.8,2.2,2.1c1.8,0.7,3.1,1.3,3.1,3.2
			c0,1.6-1,3.1-3.7,3.1c-1.1,0-2.3-0.3-3-0.9l-0.2-2.4h0.5c0.4,1.7,1.3,2.8,2.7,2.8c1.3,0,2.1-0.7,2.1-2c0-1.2-1.3-1.9-2.4-2.3
			c-1.6-0.6-2.8-1.2-2.8-3.1c0-2,1.6-3,3.5-3c1,0,2.1,0.3,2.7,0.6v2.3H76.5z"/>
		<path class="st1" d="M84.4,142v-0.5l0.7-0.1c0.5,0,0.5-0.2,0.4-0.6c-0.3-0.7-0.8-2.3-1-2.8h-3.4c-0.3,1.1-0.7,1.9-0.9,2.8
			c-0.1,0.4-0.1,0.5,0.4,0.6l0.8,0.1v0.5H78v-0.5c0.9,0,1.1-0.2,1.4-1c1.1-2.8,2.2-6,3.2-9h1.2c0.8,2.5,2.4,6.9,3.2,9.1
			c0.3,0.8,0.4,0.8,1.3,0.9v0.5H84.4z M82.8,133L82.8,133c-0.5,1.3-1,2.9-1.5,4.4h3C84,136.3,83.2,134,82.8,133z"/>
		<path class="st1" d="M88.8,142v-0.5c0.8-0.1,1.2-0.1,1.3-0.8c0.1-0.5,0.1-1.1,0.1-1.9V133c0-0.8,0-0.9-1.3-0.9v-0.5H92
			c1.1,2.5,2.4,5.3,3.5,7.9h0c0.9-2.1,2.7-6.1,3.5-7.9h3.1v0.5c-1.3,0.1-1.3,0.1-1.3,1v7.5c0,0.8,0,0.9,1.3,1v0.5h-4.3v-0.5
			c1.3-0.1,1.4-0.1,1.4-1v-7.6h0c-1,2.3-3.2,7.3-3.9,9h-0.4c-0.8-2-2.9-6.8-3.9-9h0v5.9c0,0.8,0,1.4,0.1,1.9
			c0.1,0.6,0.5,0.7,1.5,0.8v0.5H88.8z"/>
		<path class="st1" d="M104.5,133c0-0.8,0-0.9-1.3-0.9v-0.5h7.7v2.5h-0.5c-0.2-1.6-0.6-2-2.3-2h-1.4c-0.5,0-0.5,0.1-0.5,0.5v3.6h2
			c1.3,0,1.3-0.4,1.5-1.4h0.5v3.4h-0.5c-0.1-1-0.2-1.4-1.5-1.4h-2v3.3c0,1,0.2,1.3,1.9,1.3c1.9,0,2.6-0.4,2.9-2.2h0.5l-0.3,2.8h-8
			v-0.5c1.3-0.1,1.3-0.1,1.3-1V133z"/>
	</g>
	<g class="st0">
		<path class="st1" d="M39.6,160c0,1.6-0.2,2.8-1.6,3.4c-0.6,0.3-1.1,0.3-1.7,0.4l-0.1-0.4c0.5-0.1,0.8-0.3,1.1-0.7
			c0.4-0.4,0.6-1.2,0.6-2.7V153c0-0.8,0-0.9-1.4-1v-0.5h4.3v0.5c-1.3,0.1-1.3,0.1-1.3,1V160z"/>
		<path class="st1" d="M52.2,156.8c0,3.3-1.6,5.5-5.1,5.5c-3.4,0-5.1-2.2-5.1-5.5c0-3.3,1.6-5.5,5.1-5.5
			C50.5,151.3,52.2,153.5,52.2,156.8z M43.8,156.8c0,2.2,0.6,4.9,3.2,4.9c2.7,0,3.3-2.7,3.3-4.9s-0.6-4.9-3.3-4.9
			C44.4,151.9,43.8,154.6,43.8,156.8z"/>
		<path class="st1" d="M58,151.5c1.7,0,3.5,0.4,3.5,2.4c0,1.3-0.9,2-2.3,2.3v0c1.5,0.2,2.8,0.8,2.8,2.6c0,1-0.4,1.7-0.9,2.2
			c-0.7,0.6-1.9,0.9-3.2,0.9h-4.3v-0.5c1.3-0.1,1.3-0.1,1.3-1V153c0-0.8,0-0.9-1.3-0.9v-0.5H58z M56.4,156.1h0.9
			c1.6,0,2.5-0.5,2.5-2c0-1.5-1.1-2-2.3-1.9c-1.1,0-1.2,0.1-1.2,0.7V156.1z M56.4,160.3c0,0.9,0.2,1.2,1.3,1.2
			c1.3,0,2.5-0.6,2.5-2.4c0-1.7-1-2.4-2.9-2.4h-1V160.3z"/>
		<path class="st1" d="M71.5,160.5c0,0.7,0,0.8,0.9,0.9l0.8,0v0.5h-4.9v-0.5l0.8,0c0.8,0,0.9-0.3,0.9-0.9v-8.4h-0.9
			c-1.7,0-2,0.4-2.2,2.1h-0.5v-2.7h8.8v2.7h-0.5c-0.2-1.7-0.5-2.1-2.2-2.1h-0.9V160.5z"/>
		<path class="st1" d="M78.9,160.5c0,0.8,0,0.9,1.3,1v0.5H76v-0.5c1.3-0.1,1.3-0.1,1.3-1V153c0-0.8,0-0.9-1.3-0.9v-0.5h4.3v0.5
			c-1.3,0.1-1.3,0.1-1.3,0.9V160.5z"/>
		<path class="st1" d="M86.3,160.5c0,0.7,0,0.8,0.9,0.9l0.8,0v0.5h-4.9v-0.5l0.8,0c0.8,0,0.9-0.3,0.9-0.9v-8.4h-0.9
			c-1.7,0-2,0.4-2.2,2.1h-0.5v-2.7h8.8v2.7h-0.5c-0.2-1.7-0.5-2.1-2.2-2.1h-0.9V160.5z"/>
		<path class="st1" d="M93.7,160.2c0,1,0.2,1.3,1.9,1.3c1.6,0,2.4-0.3,2.7-2.4h0.5l-0.3,2.9h-7.8v-0.5c1.3-0.1,1.3-0.1,1.3-1V153
			c0-0.8,0-0.9-1.3-0.9v-0.5h4.4v0.5c-1.4,0.1-1.4,0.1-1.4,0.9V160.2z"/>
		<path class="st1" d="M100.9,153c0-0.8,0-0.9-1.3-0.9v-0.5h7.7v2.5h-0.5c-0.2-1.6-0.6-2-2.3-2h-1.4c-0.5,0-0.5,0.1-0.5,0.5v3.6h2
			c1.3,0,1.3-0.4,1.5-1.4h0.5v3.4H106c-0.1-1-0.2-1.4-1.5-1.4h-2v3.3c0,1,0.2,1.3,1.9,1.3c1.9,0,2.6-0.4,2.9-2.2h0.5l-0.3,2.8h-8
			v-0.5c1.3-0.1,1.3-0.1,1.3-1V153z"/>
		<path class="st1" d="M110,151.9c0-0.2-0.2-0.8-0.4-1c0.2-0.2,0.9-0.5,1.3-0.5c0.2,0.2,0.5,0.7,0.5,1c0,1.2-0.9,2.3-1.9,3.4
			l-0.3-0.3C109.7,153.7,110,152.9,110,151.9z"/>
	</g>
	<g class="st0">
		<path class="st1" d="M42.5,174.2c-0.3-1.5-1-2.3-2.3-2.3c-1.2,0-1.9,0.8-1.9,1.9c0,1.2,1.2,1.8,2.2,2.1c1.8,0.7,3.1,1.3,3.1,3.2
			c0,1.6-1,3.1-3.7,3.1c-1.1,0-2.3-0.3-3-0.9l-0.2-2.4h0.5c0.4,1.7,1.3,2.8,2.7,2.8c1.3,0,2.1-0.7,2.1-2c0-1.2-1.3-1.9-2.4-2.3
			c-1.6-0.6-2.8-1.2-2.8-3.1c0-2,1.6-3,3.5-3c1,0,2.1,0.3,2.7,0.6v2.3H42.5z"/>
		<path class="st1" d="M54.2,179l-0.2,2.6c-0.7,0.4-2.1,0.7-3.3,0.7c-3.6,0-5.5-1.7-5.5-5.4c0-1.7,0.5-3,1.4-4
			c0.9-1,2.4-1.6,4.3-1.6c1.3,0,2.5,0.3,3.2,0.6v2.4h-0.5c-0.3-1.8-1.3-2.5-2.8-2.5c-2.8,0-3.7,2.5-3.7,4.9c0,1.8,0.6,4.9,3.7,4.9
			c2,0,2.7-1.1,3.1-2.7H54.2z"/>
		<path class="st1" d="M61.4,182v-0.5l0.7-0.1c0.5,0,0.5-0.2,0.4-0.6c-0.3-0.7-0.8-2.3-1-2.8h-3.4c-0.3,1.1-0.7,1.9-0.9,2.8
			c-0.1,0.4-0.1,0.5,0.4,0.6l0.8,0.1v0.5h-3.3v-0.5c0.9,0,1.1-0.2,1.4-1c1.1-2.8,2.2-6,3.2-9h1.2c0.8,2.5,2.4,6.9,3.2,9.1
			c0.3,0.8,0.4,0.8,1.3,0.9v0.5H61.4z M59.8,173L59.8,173c-0.5,1.3-1,2.9-1.5,4.4h3C61,176.3,60.2,174,59.8,173z"/>
		<path class="st1" d="M68.8,180.2c0,1,0.2,1.3,1.9,1.3c1.6,0,2.4-0.3,2.7-2.4H74l-0.3,2.9h-7.8v-0.5c1.3-0.1,1.3-0.1,1.3-1V173
			c0-0.8,0-0.9-1.3-0.9v-0.5h4.4v0.5c-1.4,0.1-1.4,0.1-1.4,0.9V180.2z"/>
		<path class="st1" d="M76,173c0-0.8,0-0.9-1.3-0.9v-0.5h7.7v2.5h-0.5c-0.2-1.6-0.6-2-2.3-2h-1.4c-0.5,0-0.5,0.1-0.5,0.5v3.6h2
			c1.3,0,1.3-0.4,1.5-1.4h0.5v3.4h-0.5c-0.1-1-0.2-1.4-1.5-1.4h-2v3.3c0,1,0.2,1.3,1.9,1.3c1.9,0,2.6-0.4,2.9-2.2H83l-0.3,2.8h-8
			v-0.5c1.3-0.1,1.3-0.1,1.3-1V173z"/>
	</g>
	<line class="st2" x1="58.5" y1="61.5" x2="78.5" y2="61.5"/>
</g>
<g>
	<defs>
		<rect id="SVGID_3_" x="77.8" y="53.3" width="7.4" height="16.9"/>
	</defs>
	<clipPath id="SVGID_4_">
		<use xlink:href="#SVGID_3_"  style="overflow:visible;"/>
	</clipPath>
	<g class="st3">
		<g>
			<defs>
				<rect id="SVGID_5_" x="77" y="53" width="11" height="18"/>
			</defs>
			<clipPath id="SVGID_6_">
				<use xlink:href="#SVGID_5_"  style="overflow:visible;"/>
			</clipPath>
			<g class="st4">
				<defs>
					<path id="SVGID_7_" d="M79.9,61.8c7.6,0.9,4.8,8.4,4.8,8.4s0.4-5.6-5.9-8.2c-0.1,0.2-0.3,0.4-0.5,0.4c-0.3,0-0.5-0.2-0.5-0.5
						c0-0.3,0.2-0.5,0.5-0.5c0.2,0,0.4,0.2,0.5,0.4c6.3-2.7,5.7-8.4,5.7-8.4S87.5,60.7,79.9,61.8"/>
				</defs>
				<clipPath id="SVGID_8_">
					<use xlink:href="#SVGID_7_"  style="overflow:visible;"/>
				</clipPath>
				<g class="st5">
					<defs>
						<rect id="SVGID_9_" x="77" y="53" width="9" height="18"/>
					</defs>
					<clipPath id="SVGID_10_">
						<use xlink:href="#SVGID_9_"  style="overflow:visible;"/>
					</clipPath>
					<rect x="72.8" y="48.3" class="st6" width="17.4" height="26.9"/>
				</g>
			</g>
		</g>
	</g>
</g>
<g>
	<defs>
		<rect id="SVGID_11_" x="51.2" y="53.3" width="7.4" height="16.9"/>
	</defs>
	<clipPath id="SVGID_12_">
		<use xlink:href="#SVGID_11_"  style="overflow:visible;"/>
	</clipPath>
	<g class="st7">
		<g>
			<defs>
				<rect id="SVGID_13_" x="48" y="53" width="11" height="18"/>
			</defs>
			<clipPath id="SVGID_14_">
				<use xlink:href="#SVGID_13_"  style="overflow:visible;"/>
			</clipPath>
			<g class="st8">
				<defs>
					<path id="SVGID_15_" d="M56.6,61.8c-7.6,0.9-4.8,8.4-4.8,8.4s-0.4-5.6,5.9-8.2c0.1,0.2,0.3,0.4,0.5,0.4c0.3,0,0.5-0.2,0.5-0.5
						c0-0.3-0.2-0.5-0.5-0.5c-0.2,0-0.4,0.2-0.5,0.4c-6.3-2.7-5.7-8.4-5.7-8.4S49,60.7,56.6,61.8"/>
				</defs>
				<clipPath id="SVGID_16_">
					<use xlink:href="#SVGID_15_"  style="overflow:visible;"/>
				</clipPath>
				<g class="st9">
					<defs>
						<rect id="SVGID_17_" x="51" y="53" width="8" height="18"/>
					</defs>
					<clipPath id="SVGID_18_">
						<use xlink:href="#SVGID_17_"  style="overflow:visible;"/>
					</clipPath>
					<rect x="46.2" y="48.3" class="st10" width="17.4" height="26.9"/>
				</g>
			</g>
		</g>
	</g>
</g>
<g>
	<defs>
		<rect id="SVGID_19_" x="-55" y="-299" width="360" height="667"/>
	</defs>
	<clipPath id="SVGID_20_">
		<use xlink:href="#SVGID_19_"  style="overflow:visible;"/>
	</clipPath>
	<g class="st11">
		<text transform="matrix(1 0 0 1 34 69)" class="st1 st12 st13">1</text>
	</g>
	<g class="st11">
		<text transform="matrix(1 0 0 1 94 69)" class="st1 st12 st13">62</text>
	</g>
	<path class="st14" d="M53.4,85.6c3.4-7,5.1-17.2,4.3-28.4c-0.5-6.9-1.9-13.3-3.8-18.7"/>
	<path class="st14" d="M36,126c22.4-12.5,43-31.2,43-62.5c0-9.4-1.9-17.8-5.1-25.1C66.4,21.5,51.6,9.7,36,1"/>
	<line class="st15" x1="204.2" y1="24.8" x2="204.2" y2="324.8"/>
</g>
<g>
	<defs>
		<rect id="SVGID_21_" x="193.7" y="16.6" width="20.7" height="9.1"/>
	</defs>
	<clipPath id="SVGID_22_">
		<use xlink:href="#SVGID_21_"  style="overflow:visible;"/>
	</clipPath>
	<g class="st16">
		<g>
			<defs>
				<rect id="SVGID_23_" x="193" y="13" width="22" height="13"/>
			</defs>
			<clipPath id="SVGID_24_">
				<use xlink:href="#SVGID_23_"  style="overflow:visible;"/>
			</clipPath>
			<g class="st17">
				<defs>
					<path id="SVGID_25_" d="M204,23.2c-1.1-9.3-10.3-5.9-10.3-5.9s6.9-0.5,10.1,7.2c-0.3,0.1-0.5,0.3-0.5,0.6
						c0,0.3,0.3,0.6,0.7,0.6c0.4,0,0.7-0.3,0.7-0.6c0-0.3-0.2-0.5-0.5-0.6c3.3-7.7,10.2-7,10.2-7S205.3,13.8,204,23.2"/>
				</defs>
				<clipPath id="SVGID_26_">
					<use xlink:href="#SVGID_25_"  style="overflow:visible;"/>
				</clipPath>
				<g class="st18">
					<defs>
						<rect id="SVGID_27_" x="193" y="16" width="22" height="10"/>
					</defs>
					<clipPath id="SVGID_28_">
						<use xlink:href="#SVGID_27_"  style="overflow:visible;"/>
					</clipPath>
					<rect x="188.7" y="11.6" class="st19" width="30.7" height="19.1"/>
				</g>
			</g>
		</g>
	</g>
</g>
<g>
	<defs>
		<rect id="SVGID_29_" x="193.7" y="324.3" width="20.7" height="9.1"/>
	</defs>
	<clipPath id="SVGID_30_">
		<use xlink:href="#SVGID_29_"  style="overflow:visible;"/>
	</clipPath>
	<g class="st20">
		<g>
			<defs>
				<rect id="SVGID_31_" x="193" y="324" width="22" height="13"/>
			</defs>
			<clipPath id="SVGID_32_">
				<use xlink:href="#SVGID_31_"  style="overflow:visible;"/>
			</clipPath>
			<g class="st21">
				<defs>
					<path id="SVGID_33_" d="M204,326.8c-1.1,9.3-10.3,5.9-10.3,5.9s6.9,0.5,10.1-7.2c-0.3-0.1-0.5-0.3-0.5-0.6
						c0-0.3,0.3-0.6,0.7-0.6c0.4,0,0.7,0.3,0.7,0.6c0,0.3-0.2,0.5-0.5,0.6c3.3,7.7,10.2,7,10.2,7S205.3,336.2,204,326.8"/>
				</defs>
				<clipPath id="SVGID_34_">
					<use xlink:href="#SVGID_33_"  style="overflow:visible;"/>
				</clipPath>
				<g class="st22">
					<defs>
						<rect id="SVGID_35_" x="193" y="324" width="22" height="10"/>
					</defs>
					<clipPath id="SVGID_36_">
						<use xlink:href="#SVGID_35_"  style="overflow:visible;"/>
					</clipPath>
					<rect x="188.7" y="319.3" class="st23" width="30.7" height="19.1"/>
				</g>
			</g>
		</g>
	</g>
</g>
<g>
	<defs>
		<rect id="SVGID_37_" x="-55" y="-299" width="360" height="667"/>
	</defs>
	<clipPath id="SVGID_38_">
		<use xlink:href="#SVGID_37_"  style="overflow:visible;"/>
	</clipPath>
	<path class="st24" d="M227,176c0-76.5-11-122.4-23-153"/>
	<path class="st24" d="M227,174c0,76.5-11,122.4-23,153"/>
	<line class="st25" x1="183.7" y1="160.3" x2="183.7" y2="190.3"/>
</g>
<g>
	<defs>
		<rect id="SVGID_39_" x="175" y="189.6" width="16.9" height="7.4"/>
	</defs>
	<clipPath id="SVGID_40_">
		<use xlink:href="#SVGID_39_"  style="overflow:visible;"/>
	</clipPath>
	<g class="st26">
		<g>
			<defs>
				<rect id="SVGID_41_" x="175" y="189" width="17" height="11"/>
			</defs>
			<clipPath id="SVGID_42_">
				<use xlink:href="#SVGID_41_"  style="overflow:visible;"/>
			</clipPath>
			<g class="st27">
				<defs>
					<path id="SVGID_43_" d="M183.4,191.6c-0.9,7.6-8.4,4.8-8.4,4.8s5.6,0.4,8.2-5.9c-0.2-0.1-0.4-0.3-0.4-0.5
						c0-0.3,0.2-0.5,0.5-0.5c0.3,0,0.5,0.2,0.5,0.5c0,0.2-0.2,0.4-0.4,0.5c2.7,6.3,8.4,5.7,8.4,5.7S184.5,199.3,183.4,191.6"/>
				</defs>
				<clipPath id="SVGID_44_">
					<use xlink:href="#SVGID_43_"  style="overflow:visible;"/>
				</clipPath>
				<g class="st28">
					<defs>
						<rect id="SVGID_45_" x="175" y="189" width="17" height="8"/>
					</defs>
					<clipPath id="SVGID_46_">
						<use xlink:href="#SVGID_45_"  style="overflow:visible;"/>
					</clipPath>
					<rect x="170" y="184.6" class="st29" width="26.9" height="17.4"/>
				</g>
			</g>
		</g>
	</g>
</g>
<g>
	<defs>
		<rect id="SVGID_47_" x="175" y="153" width="16.9" height="7.4"/>
	</defs>
	<clipPath id="SVGID_48_">
		<use xlink:href="#SVGID_47_"  style="overflow:visible;"/>
	</clipPath>
	<g class="st30">
		<g>
			<defs>
				<rect id="SVGID_49_" x="175" y="150" width="17" height="11"/>
			</defs>
			<clipPath id="SVGID_50_">
				<use xlink:href="#SVGID_49_"  style="overflow:visible;"/>
			</clipPath>
			<g class="st31">
				<defs>
					<path id="SVGID_51_" d="M183.4,158.4c-0.9-7.6-8.4-4.8-8.4-4.8s5.6-0.4,8.2,5.9c-0.2,0.1-0.4,0.3-0.4,0.5
						c0,0.3,0.2,0.5,0.5,0.5c0.3,0,0.5-0.2,0.5-0.5c0-0.2-0.2-0.4-0.4-0.5c2.7-6.3,8.4-5.7,8.4-5.7S184.5,150.7,183.4,158.4"/>
				</defs>
				<clipPath id="SVGID_52_">
					<use xlink:href="#SVGID_51_"  style="overflow:visible;"/>
				</clipPath>
				<g class="st32">
					<defs>
						<rect id="SVGID_53_" x="175" y="153" width="17" height="8"/>
					</defs>
					<clipPath id="SVGID_54_">
						<use xlink:href="#SVGID_53_"  style="overflow:visible;"/>
					</clipPath>
					<rect x="170" y="148" class="st33" width="26.9" height="17.4"/>
				</g>
			</g>
		</g>
	</g>
</g>
<g>
	<defs>
		<rect id="SVGID_55_" x="-55" y="-299" width="360" height="667"/>
	</defs>
	<clipPath id="SVGID_56_">
		<use xlink:href="#SVGID_55_"  style="overflow:visible;"/>
	</clipPath>
	<path class="st34" d="M183,191c4.4,0,8-6.9,8-15.5s-3.6-15.5-8-15.5"/>
	<g class="st35">
		<g>
			<path class="st1" d="M212.7,182v-0.7l1.7-0.2c0.6,0,0.7-0.5,0.7-1v-9.9c0-0.6-0.1-0.8-0.5-0.8l-1.9-0.2v-0.6l4.4-0.6l0.1,0.1
				v12.1c0,0.8,0.2,0.9,0.7,1l1.7,0.2v0.7H212.7z"/>
			<path class="st1" d="M231.6,168.2l0.2,0.2c-0.7,2.6-1.7,3.9-3,6.2c-0.9,1.6-1.5,3.7-1.5,5.7c0,0.4,0,0.8,0.1,1.1
				c0.1,0.6-0.4,0.8-0.9,0.8c-0.7,0-1.3-0.3-1.3-1c0-2.3,1.1-4.5,2.9-7c1.2-1.8,1.9-3.2,2.4-4.2h-5.8c-0.9,0-1.1,0.7-1.3,1.3
				l-0.2,0.4h-0.7l0.7-3.5H231.6z"/>
			<path class="st1" d="M236.1,170c-0.4,0-0.5,0.1-0.6,0.6l-0.5,4l0,0c0.7-0.6,2.1-1.2,3.2-1.2c2.6,0,4.2,1.2,4.2,4.1
				c0,2.6-1.6,4.7-5,4.7c-2.8,0-4.2-1.4-4.2-2.4c0-0.7,0.7-1.1,1.1-1.1c0.3,0,0.5,0.2,0.6,0.5c0.4,1.3,1.1,2.2,2.6,2.2
				c1.8,0,2.6-1.6,2.6-3.7c0-2.7-1.4-3.3-2.7-3.3c-1.1,0-2,0.5-2.9,1.5l-0.6-0.3l0.7-7.4l0.2-0.2h4.4c2,0,2.3,0,2.7-0.2l0.2,0.1
				l-0.6,1.8H236.1z"/>
		</g>
	</g>
	<g class="st35">
		<text transform="matrix(1 0 0 1 154.5 182)" class="st1 st12 st13">30</text>
	</g>
	<g class="st35">
		<g>
			<path class="st1" d="M119.8,221.2c0,0.2,0.1,0.8,0.4,1.1c-0.2,0.2-0.9,0.5-1.3,0.5c-0.2-0.2-0.5-0.7-0.5-1c0-1.2,0.9-2.3,1.9-3.4
				l0.3,0.3C120.1,219.5,119.8,220.3,119.8,221.2z"/>
			<path class="st1" d="M130.7,230c-2.1-3-4.2-6-6.3-9h0v5.9c0,0.8,0,1.4,0.1,1.9c0.1,0.7,0.6,0.7,1.5,0.8v0.5h-3.7v-0.5
				c0.8-0.1,1.2-0.1,1.3-0.8c0.1-0.5,0.1-1.1,0.1-1.9V221c0-0.8,0-0.9-1.3-1v-0.5h3c1.7,2.4,3.8,5.5,5.8,8.3l0,0v-5.1
				c0-0.8,0-1.4-0.1-1.9c-0.1-0.7-0.6-0.7-1.6-0.8v-0.5h3.7v0.5c-0.8,0.1-1.2,0.1-1.3,0.8c-0.1,0.5-0.1,1.1-0.1,1.9v7.3H130.7z"/>
			<path class="st1" d="M144.8,219.5v0.5c-1.3,0.1-1.3,0.1-1.3,1v5.2c0,0.9-0.2,1.7-0.4,2.2c-0.7,1.5-2.3,1.8-3.8,1.8
				c-1.5,0-3.1-0.4-3.8-1.8c-0.3-0.5-0.4-1.3-0.4-2.2V221c0-0.8,0-0.9-1.3-0.9v-0.5h4.3v0.5c-1.3,0.1-1.3,0.1-1.3,0.9v4.9
				c0,1.8,0.4,3.8,2.6,3.8c2.3,0,2.7-1.8,2.7-3.8V221c0-0.8,0-0.9-1.3-0.9v-0.5H144.8z"/>
			<path class="st1" d="M145.3,230v-0.5c0.8-0.1,1.2-0.1,1.3-0.8c0.1-0.5,0.1-1.1,0.1-1.9V221c0-0.8,0-0.9-1.3-0.9v-0.5h3.1
				c1.1,2.5,2.4,5.3,3.5,7.9h0c0.9-2.1,2.7-6.1,3.5-7.9h3.1v0.5c-1.3,0.1-1.3,0.1-1.3,1v7.5c0,0.8,0,0.9,1.3,1v0.5h-4.3v-0.5
				c1.3-0.1,1.4-0.1,1.4-1v-7.6h0c-1,2.3-3.2,7.3-3.9,9h-0.4c-0.8-2-2.9-6.8-3.9-9h0v5.9c0,0.8,0,1.4,0.1,1.9
				c0.1,0.6,0.5,0.7,1.5,0.8v0.5H145.3z"/>
			<path class="st1" d="M164.3,219.5c1.7,0,3.5,0.4,3.5,2.4c0,1.3-0.9,2-2.3,2.3v0c1.5,0.2,2.8,0.8,2.8,2.6c0,1-0.4,1.7-0.9,2.2
				c-0.7,0.6-1.9,0.9-3.2,0.9h-4.3v-0.5c1.3-0.1,1.3-0.1,1.3-1V221c0-0.8,0-0.9-1.3-0.9v-0.5H164.3z M162.7,224.1h0.9
				c1.6,0,2.5-0.5,2.5-2c0-1.5-1.1-2-2.3-1.9c-1.1,0-1.2,0.1-1.2,0.7V224.1z M162.7,228.3c0,0.9,0.2,1.2,1.3,1.2
				c1.3,0,2.5-0.6,2.5-2.4c0-1.7-1-2.4-2.9-2.4h-1V228.3z"/>
			<path class="st1" d="M170.8,221c0-0.8,0-0.9-1.3-0.9v-0.5h7.7v2.5h-0.5c-0.2-1.6-0.6-2-2.3-2h-1.4c-0.5,0-0.5,0.1-0.5,0.5v3.6h2
				c1.3,0,1.3-0.4,1.5-1.4h0.5v3.4h-0.5c-0.1-1-0.2-1.4-1.5-1.4h-2v3.3c0,1,0.2,1.3,1.9,1.3c1.9,0,2.6-0.4,2.9-2.2h0.5l-0.3,2.8h-8
				v-0.5c1.3-0.1,1.3-0.1,1.3-1V221z"/>
			<path class="st1" d="M181.6,228.5c0,0.8,0,0.9,1.3,1v0.5h-4.3v-0.5c1.3-0.1,1.3-0.1,1.3-1V221c0-0.8,0-0.9-1.3-0.9v-0.5h4.7
				c2.6,0,3.3,1.2,3.3,2.6c0,1.4-1,2.3-2.4,2.6v0c1.6,0.4,2,1.5,2.2,2.8c0.1,1,0.4,1.8,1.6,2v0.5h-1.3c-0.9,0-1.5-0.3-1.7-1.3
				c-0.2-0.7-0.3-1.9-0.4-2.3c-0.3-1.1-1-1.4-2-1.4h-1V228.5z M181.6,224.4h1.1c1.5,0,2.2-0.6,2.2-2.2c0-2-1.2-2.2-2.4-2.2
				c-1,0-1,0.1-1,0.8V224.4z"/>
		</g>
	</g>
	<g class="st35">
		<g>
			<path class="st1" d="M117.8,244.8c0,3.3-1.6,5.5-5.1,5.5c-3.4,0-5.1-2.2-5.1-5.5c0-3.3,1.6-5.5,5.1-5.5
				C116.2,239.3,117.8,241.5,117.8,244.8z M109.5,244.8c0,2.2,0.6,4.9,3.2,4.9s3.3-2.7,3.3-4.9s-0.6-4.9-3.3-4.9
				C110.1,239.9,109.5,242.6,109.5,244.8z"/>
			<path class="st1" d="M126.8,239.5v2.5h-0.5c-0.2-1.5-0.6-2-2.3-2h-1.4c-0.5,0-0.6,0-0.6,0.5v3.8h2c1.3,0,1.3-0.4,1.5-1.4h0.5v3.5
				h-0.5c-0.1-1-0.2-1.5-1.5-1.5h-2v3.5c0,0.8,0,0.9,1.6,1v0.5h-4.5v-0.5c1.3-0.1,1.3-0.1,1.3-1V241c0-0.8,0-0.9-1.3-0.9v-0.5H126.8
				z"/>
			<path class="st1" d="M131.1,250v-0.5c1.3-0.1,1.3-0.1,1.3-1V241c0-0.8,0-0.9-1.3-1v-0.5h4.3c1.1,0,2,0.1,2.8,0.6
				c0.7,0.4,1.2,1.2,1.2,2.4c0,1.9-1.1,2.7-2.2,3.1c-0.6,0.2-1.2,0.2-1.8,0.2c-0.5,0-1-0.1-1.2-0.1v2.9c0,0.8,0,0.9,1.6,1v0.5H131.1
				z M134.1,244.6c0,0.5,0.4,0.6,1.3,0.6c1.3,0,2.2-0.8,2.2-2.6c0-1.6-0.9-2.5-2.4-2.5c-1,0-1.1,0.1-1.1,0.6V244.6z"/>
			<path class="st1" d="M141.7,241c0-0.8,0-0.9-1.3-0.9v-0.5h7.7v2.5h-0.5c-0.2-1.6-0.6-2-2.3-2h-1.4c-0.5,0-0.5,0.1-0.5,0.5v3.6h2
				c1.3,0,1.3-0.4,1.5-1.4h0.5v3.4h-0.5c-0.1-1-0.2-1.4-1.5-1.4h-2v3.3c0,1,0.2,1.3,1.9,1.3c1.9,0,2.6-0.4,2.9-2.2h0.5l-0.3,2.8h-8
				v-0.5c1.3-0.1,1.3-0.1,1.3-1V241z"/>
			<path class="st1" d="M160,244.8c0,3.3-1.6,5.5-5.1,5.5c-3.4,0-5.1-2.2-5.1-5.5c0-3.3,1.6-5.5,5.1-5.5
				C158.3,239.3,160,241.5,160,244.8z M151.7,244.8c0,2.2,0.6,4.9,3.2,4.9c2.7,0,3.3-2.7,3.3-4.9s-0.6-4.9-3.3-4.9
				C152.3,239.9,151.7,242.6,151.7,244.8z"/>
			<path class="st1" d="M161.2,250v-0.5c1.3-0.1,1.3-0.1,1.3-1V241c0-0.8,0-0.9-1.3-1v-0.5h4.3c1.1,0,2,0.1,2.8,0.6
				c0.7,0.4,1.2,1.2,1.2,2.4c0,1.9-1.1,2.7-2.2,3.1c-0.6,0.2-1.2,0.2-1.8,0.2c-0.5,0-1-0.1-1.2-0.1v2.9c0,0.8,0,0.9,1.6,1v0.5H161.2
				z M164.2,244.6c0,0.5,0.4,0.6,1.3,0.6c1.3,0,2.2-0.8,2.2-2.6c0-1.6-0.9-2.5-2.4-2.5c-1,0-1.1,0.1-1.1,0.6V244.6z"/>
			<path class="st1" d="M173.4,248.2c0,1,0.2,1.3,1.9,1.3c1.6,0,2.4-0.3,2.7-2.4h0.5l-0.3,2.9h-7.8v-0.5c1.3-0.1,1.3-0.1,1.3-1V241
				c0-0.8,0-0.9-1.3-0.9v-0.5h4.4v0.5c-1.4,0.1-1.4,0.1-1.4,0.9V248.2z"/>
			<path class="st1" d="M180.6,241c0-0.8,0-0.9-1.3-0.9v-0.5h7.7v2.5h-0.5c-0.2-1.6-0.6-2-2.3-2h-1.4c-0.5,0-0.5,0.1-0.5,0.5v3.6h2
				c1.3,0,1.3-0.4,1.5-1.4h0.5v3.4h-0.5c-0.1-1-0.2-1.4-1.5-1.4h-2v3.3c0,1,0.2,1.3,1.9,1.3c1.9,0,2.6-0.4,2.9-2.2h0.5l-0.3,2.8h-8
				v-0.5c1.3-0.1,1.3-0.1,1.3-1V241z"/>
		</g>
	</g>
	<g class="st35">
		<g>
			<path class="st1" d="M100.1,268.5c0,0.8,0,0.9,1.3,1v0.5h-4.3v-0.5c1.3-0.1,1.3-0.1,1.3-1V261c0-0.8,0-0.9-1.3-0.9v-0.5h4.3v0.5
				c-1.3,0.1-1.3,0.1-1.3,0.9V268.5z"/>
			<path class="st1" d="M110.9,270c-2.1-3-4.2-6-6.3-9h0v5.9c0,0.8,0,1.4,0.1,1.9c0.1,0.7,0.6,0.7,1.5,0.8v0.5h-3.7v-0.5
				c0.8-0.1,1.2-0.1,1.3-0.8c0.1-0.5,0.1-1.1,0.1-1.9V261c0-0.8,0-0.9-1.3-1v-0.5h3c1.7,2.4,3.8,5.5,5.8,8.3l0,0v-5.1
				c0-0.8,0-1.4-0.1-1.9c-0.1-0.7-0.6-0.7-1.6-0.8v-0.5h3.7v0.5c-0.8,0.1-1.2,0.1-1.3,0.8c-0.1,0.5-0.1,1.1-0.1,1.9v7.3H110.9z"/>
			<path class="st1" d="M123.2,270v-0.5l0.7-0.1c0.5,0,0.5-0.2,0.4-0.6c-0.3-0.7-0.8-2.3-1-2.8H120c-0.3,1.1-0.7,1.9-0.9,2.8
				c-0.1,0.4-0.1,0.5,0.4,0.6l0.8,0.1v0.5h-3.3v-0.5c0.9,0,1.1-0.2,1.4-1c1.1-2.8,2.2-6,3.2-9h1.2c0.8,2.5,2.4,6.9,3.2,9.1
				c0.3,0.8,0.4,0.8,1.3,0.9v0.5H123.2z M121.7,261L121.7,261c-0.5,1.3-1,2.9-1.5,4.4h3C122.8,264.3,122,262,121.7,261z"/>
			<path class="st1" d="M140.4,269.6c-1,0.3-2.5,0.6-3.5,0.6c-1.3,0-2.7-0.2-3.8-1c-1.1-0.8-1.9-2.4-1.9-4.3c0-3.5,2-5.7,5.7-5.7
				c1.5,0,2.6,0.3,3.3,0.6v2.5h-0.5c-0.3-1.9-1.3-2.6-3-2.6c-2.9,0-3.7,2.5-3.7,4.9c0,1.8,0.6,5,4,5c0.5,0,0.9-0.1,1.3-0.2
				c0.3-0.1,0.5-0.3,0.5-0.8v-2.1c0-0.7-0.1-0.8-1.6-0.9v-0.5h4.2v0.5c-1,0.1-1.1,0.2-1.1,0.9V269.6z"/>
			<path class="st1" d="M145.3,268.5c0,0.8,0,0.9,1.3,1v0.5h-4.3v-0.5c1.3-0.1,1.3-0.1,1.3-1V261c0-0.8,0-0.9-1.3-0.9v-0.5h4.7
				c2.6,0,3.3,1.2,3.3,2.6c0,1.4-1,2.3-2.4,2.6v0c1.6,0.4,2,1.5,2.2,2.8c0.1,1,0.4,1.8,1.6,2v0.5h-1.3c-0.9,0-1.5-0.3-1.7-1.3
				c-0.2-0.7-0.3-1.9-0.4-2.3c-0.3-1.1-1-1.4-2-1.4h-1V268.5z M145.3,264.4h1.1c1.5,0,2.2-0.6,2.2-2.2c0-2-1.2-2.2-2.4-2.2
				c-1,0-1,0.1-1,0.8V264.4z"/>
			<path class="st1" d="M162.4,264.8c0,3.3-1.6,5.5-5.1,5.5c-3.4,0-5.1-2.2-5.1-5.5c0-3.3,1.6-5.5,5.1-5.5
				C160.8,259.3,162.4,261.5,162.4,264.8z M154.1,264.8c0,2.2,0.6,4.9,3.2,4.9c2.7,0,3.3-2.7,3.3-4.9s-0.6-4.9-3.3-4.9
				C154.7,259.9,154.1,262.6,154.1,264.8z"/>
			<path class="st1" d="M174.4,259.5v0.5c-1.3,0.1-1.3,0.1-1.3,1v5.2c0,0.9-0.2,1.7-0.4,2.2c-0.7,1.5-2.3,1.8-3.8,1.8
				c-1.5,0-3.1-0.4-3.8-1.8c-0.3-0.5-0.4-1.3-0.4-2.2V261c0-0.8,0-0.9-1.3-0.9v-0.5h4.3v0.5c-1.3,0.1-1.3,0.1-1.3,0.9v4.9
				c0,1.8,0.4,3.8,2.6,3.8c2.3,0,2.7-1.8,2.7-3.8V261c0-0.8,0-0.9-1.3-0.9v-0.5H174.4z"/>
			<path class="st1" d="M175,270v-0.5c1.3-0.1,1.3-0.1,1.3-1V261c0-0.8,0-0.9-1.3-1v-0.5h4.3c1.1,0,2,0.1,2.8,0.6
				c0.7,0.4,1.2,1.2,1.2,2.4c0,1.9-1.1,2.7-2.2,3.1c-0.6,0.2-1.2,0.2-1.8,0.2c-0.5,0-1-0.1-1.2-0.1v2.9c0,0.8,0,0.9,1.6,1v0.5H175z
				 M177.9,264.6c0,0.5,0.4,0.6,1.3,0.6c1.3,0,2.2-0.8,2.2-2.6c0-1.6-0.9-2.5-2.4-2.5c-1,0-1.1,0.1-1.1,0.6V264.6z"/>
			<path class="st1" d="M185.5,259.9c0-0.2-0.2-0.8-0.4-1c0.2-0.2,0.9-0.5,1.3-0.5c0.2,0.2,0.5,0.7,0.5,1c0,1.2-0.9,2.3-1.9,3.4
				l-0.3-0.3C185.2,261.7,185.5,260.9,185.5,259.9z"/>
		</g>
	</g>
	<g class="st35">
		<g>
			<path class="st1" d="M147.1,282.2c-0.3-1.5-1-2.3-2.3-2.3c-1.2,0-1.9,0.8-1.9,1.9c0,1.2,1.2,1.8,2.2,2.1c1.8,0.7,3.1,1.3,3.1,3.2
				c0,1.6-1,3.1-3.7,3.1c-1.1,0-2.3-0.3-3-0.9l-0.2-2.4h0.5c0.4,1.7,1.3,2.8,2.7,2.8c1.3,0,2.1-0.7,2.1-2c0-1.2-1.3-1.9-2.4-2.3
				c-1.6-0.6-2.8-1.2-2.8-3.1c0-2,1.6-3,3.5-3c1,0,2.1,0.3,2.7,0.6v2.3H147.1z"/>
			<path class="st1" d="M158.9,287l-0.2,2.6c-0.7,0.4-2.1,0.7-3.3,0.7c-3.6,0-5.5-1.7-5.5-5.4c0-1.7,0.5-3,1.4-4
				c0.9-1,2.4-1.6,4.3-1.6c1.3,0,2.5,0.3,3.2,0.6v2.4h-0.5c-0.3-1.8-1.3-2.5-2.8-2.5c-2.8,0-3.7,2.5-3.7,4.9c0,1.8,0.6,4.9,3.7,4.9
				c2,0,2.7-1.1,3.1-2.7H158.9z"/>
			<path class="st1" d="M166,290v-0.5l0.7-0.1c0.5,0,0.5-0.2,0.4-0.6c-0.3-0.7-0.8-2.3-1-2.8h-3.4c-0.3,1.1-0.7,1.9-0.9,2.8
				c-0.1,0.4-0.1,0.5,0.4,0.6l0.8,0.1v0.5h-3.3v-0.5c0.9,0,1.1-0.2,1.4-1c1.1-2.8,2.2-6,3.2-9h1.2c0.8,2.5,2.4,6.9,3.2,9.1
				c0.3,0.8,0.4,0.8,1.3,0.9v0.5H166z M164.4,281L164.4,281c-0.5,1.3-1,2.9-1.5,4.4h3C165.6,284.3,164.8,282,164.4,281z"/>
			<path class="st1" d="M173.4,288.2c0,1,0.2,1.3,1.9,1.3c1.6,0,2.4-0.3,2.7-2.4h0.5l-0.3,2.9h-7.8v-0.5c1.3-0.1,1.3-0.1,1.3-1V281
				c0-0.8,0-0.9-1.3-0.9v-0.5h4.4v0.5c-1.4,0.1-1.4,0.1-1.4,0.9V288.2z"/>
			<path class="st1" d="M180.6,281c0-0.8,0-0.9-1.3-0.9v-0.5h7.7v2.5h-0.5c-0.2-1.6-0.6-2-2.3-2h-1.4c-0.5,0-0.5,0.1-0.5,0.5v3.6h2
				c1.3,0,1.3-0.4,1.5-1.4h0.5v3.4h-0.5c-0.1-1-0.2-1.4-1.5-1.4h-2v3.3c0,1,0.2,1.3,1.9,1.3c1.9,0,2.6-0.4,2.9-2.2h0.5l-0.3,2.8h-8
				v-0.5c1.3-0.1,1.3-0.1,1.3-1V281z"/>
		</g>
	</g>
	<rect y="171" class="st36" width="30" height="158"/>
</g>
</svg>
