<svg xmlns="http://www.w3.org/2000/svg" xmlns:xlink="http://www.w3.org/1999/xlink" width="178" height="156" viewBox="0 0 178 156">
  <defs>
    <polygon id="scale_char-a" points=".647 .302 21.353 .302 21.353 9.361 .647 9.361"/>
    <polygon id="scale_char-c" points=".647 .302 21.353 .302 21.353 9.361 .647 9.361"/>
    <path id="scale_char-e" d="M161.522,107.242 C164.8,107.242 166.296,105.35 166.296,103.172 C166.296,101.038 164.91,99.96 163.502,99.586 L163.502,99.542 C164.734,99.212 165.834,98.288 165.834,96.484 C165.834,94.196 163.964,92.942 161.5,92.942 C159.102,92.942 157.188,94.218 157.188,96.484 C157.188,98.486 158.332,99.212 159.542,99.542 L159.542,99.586 C158.156,99.96 156.726,101.06 156.726,103.216 C156.726,105.416 158.2,107.242 161.5,107.242 L161.522,107.242 Z M161.522,99.19 L161.5,99.19 C160.114,99.19 159.498,97.782 159.498,96.44 C159.498,94.856 160.202,93.844 161.5,93.844 C162.776,93.844 163.502,94.834 163.524,96.44 C163.546,97.782 162.886,99.19 161.522,99.19 Z M161.522,106.34 C159.894,106.34 159.146,105.13 159.146,103.326 C159.146,101.61 159.938,100.136 161.5,100.136 L161.522,100.136 C163.106,100.136 163.92,101.522 163.92,103.304 C163.92,105.086 163.172,106.34 161.522,106.34 Z M176.57,107 L177.362,103.502 L176.592,103.326 C175.91,104.976 175.646,105.196 174.964,105.196 L169.486,105.196 C169.948,104.184 171.312,103.062 173.116,101.786 C175.096,100.4 176.724,99.256 176.724,96.88 C176.724,93.932 174.634,92.942 172.456,92.942 C169.442,92.942 167.792,95.01 167.792,96.22 C167.792,96.946 168.518,97.32 169.002,97.32 C169.354,97.32 169.53,97.1 169.64,96.77 C170.102,95.45 170.828,93.844 172.28,93.844 C173.776,93.844 174.304,95.164 174.304,96.55 C174.304,99.058 173.336,99.982 171.51,101.588 C169.002,103.744 167.924,105.57 167.704,106.758 L167.946,107 L176.57,107 Z"/>
    <path id="scale_char-f" d="M9.83,106.992 L9.83,106.2 L8.114,106.068 C7.696,106.024 7.432,105.87 7.432,105.056 L7.432,93.088 L7.3,92.934 L2.834,93.572 L2.834,94.254 L4.704,94.54 C5.078,94.584 5.21,94.76 5.21,95.376 L5.21,105.056 C5.21,105.606 5.122,106.024 4.528,106.068 L2.812,106.2 L2.812,106.992 L9.83,106.992 Z"/>
  </defs>
  <g fill="none" fill-rule="evenodd" transform="translate(-1)">
    <g stroke="#807160" stroke-dasharray="3" opacity=".68" transform="translate(6 5)">
      <path d="M164,75.5 C164,37.75 86.45465,15.1 2,0"/>
      <path d="M164,150.5 C164,112.75 86.45465,90.1 2,75" transform="matrix(1 0 0 -1 0 225.5)"/>
      <path d="M4,75.5 C4,37.75 2.0853,15.1 0,0"/>
      <path d="M4,150.5 C4,112.75 2.0853,90.1 0,75" transform="matrix(1 0 0 -1 0 225.5)"/>
    </g>
    <g transform="translate(.233 68.5)">
      <line x1="9.267" x2="169.267" y1="11" y2="11" stroke="#5D5246" stroke-linecap="round" stroke-width="2.2"/>
      <g transform="rotate(-90 11.5 10.676)">
        <mask id="scale_char-b" fill="#fff">
          <use xlink:href="#scale_char-a"/>
        </mask>
        <path fill="#231F20" fill-rule="nonzero" d="M10.9368342,6.83234487 C9.84913332,-2.51435311 0.647058824,0.917044552 0.647058824,0.917044552 C0.647058824,0.917044552 7.54670584,0.375899268 10.7244306,8.13580486 C10.4544142,8.2123635 10.2551991,8.44858291 10.2524226,8.72864358 C10.2482578,9.074139 10.5425687,9.35747142 10.909069,9.36082462 C11.2755694,9.36466924 11.5754333,9.08722595 11.5795981,8.74173053 C11.5823746,8.46101551 11.3887125,8.22217871 11.1200844,8.13973094 C14.4664826,0.443297048 21.3529412,1.11858355 21.3529412,1.11858355 C21.3529412,1.11858355 12.227915,-2.49145095 10.9368342,6.83234487" mask="url(#scale_char-b)"/>
      </g>
      <g transform="matrix(0 -1 -1 0 178.176 22.176)">
        <mask id="scale_char-d" fill="#fff">
          <use xlink:href="#scale_char-c"/>
        </mask>
        <path fill="#231F20" fill-rule="nonzero" d="M10.9368342,6.83234487 C9.84913332,-2.51435311 0.647058824,0.917044552 0.647058824,0.917044552 C0.647058824,0.917044552 7.54670584,0.375899268 10.7244306,8.13580486 C10.4544142,8.2123635 10.2551991,8.44858291 10.2524226,8.72864358 C10.2482578,9.074139 10.5425687,9.35747142 10.909069,9.36082462 C11.2755694,9.36466924 11.5754333,9.08722595 11.5795981,8.74173053 C11.5823746,8.46101551 11.3887125,8.22217871 11.1200844,8.13973094 C14.4664826,0.443297048 21.3529412,1.11858355 21.3529412,1.11858355 C21.3529412,1.11858355 12.227915,-2.49145095 10.9368342,6.83234487" mask="url(#scale_char-d)"/>
      </g>
    </g>
    <g fill-rule="nonzero">
      <use fill="#000" xlink:href="#scale_char-e"/>
      <use fill="#3D342B" xlink:href="#scale_char-e"/>
    </g>
    <g fill-rule="nonzero">
      <use fill="#000" xlink:href="#scale_char-f"/>
      <use fill="#3D342B" xlink:href="#scale_char-f"/>
    </g>
    <text fill="#3D342B" font-family="UtopiaStd-Capt, Utopia Std" font-size="16">
      <tspan x="52.58" y="12">‘JOB TITLE</tspan>
    </text>
    <text fill="#3D342B" font-family="UtopiaStd-Capt, Utopia Std" font-size="16">
      <tspan x="39.116" y="35.2">CHARACTERS’</tspan>
    </text>
    <text fill="#3D342B" font-family="UtopiaStd-Capt, Utopia Std" font-size="16">
      <tspan x="67.676" y="58.4">SCALE</tspan>
    </text>
  </g>
</svg>
