<svg xmlns="http://www.w3.org/2000/svg" xmlns:xlink="http://www.w3.org/1999/xlink" width="180" height="156"><defs><path id="a" d="M.647.302h20.706v9.059H.647z"/><path id="c" d="M.647.302h20.706v9.059H.647z"/></defs><g fill="none" fill-rule="evenodd"><g stroke="#807160" stroke-dasharray="3" opacity=".68"><path d="M170 80.5C170 42.75 92.455 20.1 8 5M170 80c0 37.75-77.545 60.4-162 75.5M10 80.5C10 42.75 8.085 20.1 6 5M10 80c0 37.75-1.915 60.4-4 75.5"/></g><path stroke="#5D5246" stroke-linecap="round" stroke-width="2.2" d="M9.5 79.5h160"/><g transform="rotate(-90 45.867 44.81)"><mask id="b" fill="#fff"><use xlink:href="#a"/></mask><path fill="#231F20" d="M10.937 6.832C9.849-2.514.647.917.647.917s6.9-.541 10.077 7.219a.633.633 0 00-.472.593c-.004.345.29.628.657.632.367.004.666-.274.67-.62a.632.632 0 00-.459-.601C14.466.443 21.353 1.119 21.353 1.119s-9.125-3.61-10.416 5.713" mask="url(#b)"/></g><g transform="matrix(0 -1 -1 0 178.409 90.676)"><mask id="d" fill="#fff"><use xlink:href="#c"/></mask><path fill="#231F20" d="M10.937 6.832C9.849-2.514.647.917.647.917s6.9-.541 10.077 7.219a.633.633 0 00-.472.593c-.004.345.29.628.657.632.367.004.666-.274.67-.62a.632.632 0 00-.459-.601C14.466.443 21.353 1.119 21.353 1.119s-9.125-3.61-10.416 5.713" mask="url(#d)"/></g><text fill="#3D342B" font-family="UtopiaStd-Regular, Utopia Std" font-size="22"><tspan x="156" y="107">82</tspan></text><text fill="#3D342B" font-family="UtopiaStd-Regular, Utopia Std" font-size="22"><tspan x=".7" y="101.992">1</tspan></text><text fill="#3D342B" font-family="UtopiaStd-Regular, Utopia Std" font-size="16"><tspan x="53.236" y="12">‘JOB TITLE </tspan> <tspan x="39.548" y="35.2">CHARACTERS’ </tspan> <tspan x="67.796" y="58.4">SCALE </tspan></text></g></svg>