<svg xmlns="http://www.w3.org/2000/svg" width="48" height="60"><defs><path d="M0 47l24.441-.644.111-9.214L25 0H0z"/></defs><g fill="none" fill-rule="evenodd"><g fill="#5D5246"><path d="M25.5.504V20.5l-.019-.165c-.476-3.944-1.244-8.217-3.034-11.84-.223-.45-.473-.896-.836-1.257-.383-.382-.993-.77-1.548-.905a1.937 1.937 0 00-1.563.28c.115-1.168 1.037-2.235 2.238-2.588 1.087-.32 2.106.003 3.031.53-.043-.796-.572-1.487-.483-2.342.09-.908 1.245-1.779 2.214-1.71"/><path d="M25.5 21.5l-.054-.314c-.771-4.276-2.633-8.575-5.433-11.868-2.128-2.5-4.893-4.364-8.045-5.221-1.915-.525-3.911-.678-5.886-.559-.9.055-6.895.61-5.32 2.576.259.32.736.378 1.126.26.39-.12.724-.38 1.063-.608C4.88 4.472 7.378 4.09 9.594 4.753c.372.113.813.375.738.763-.03.186-.186.326-.342.436-.411.287-.889.464-1.29.76-.4.302-.733.787-.64 1.285.108.546.687.878 1.234.9.543.021 1.068-.186 1.59-.354 1.838-.59 4.674-.91 6.472.04 1.621.854 3.347 2.902 4.407 4.403.867 1.23 1.495 2.615 2.065 4.013a59.746 59.746 0 011.486 4.05l.186.451z"/><path d="M23.5 20.5c.006-.055.015-.11.022-.165.476-3.944 1.244-8.217 3.03-11.84.225-.45.476-.896.838-1.257.38-.382.993-.77 1.547-.905a1.936 1.936 0 011.563.28c-.118-1.168-1.037-2.235-2.237-2.588-1.09-.32-2.108.003-3.03.53.043-.796.572-1.487.483-2.342-.093-.908-1.244-1.779-2.216-1.71V20.5z"/><path d="M23.671 21.87c.015-.1.033-.199.053-.301.75-4.092 2.56-8.207 5.285-11.358 2.07-2.392 4.756-4.177 7.821-4.998 1.866-.502 3.808-.648 5.729-.534.876.052 6.706.584 5.174 2.465-.252.307-.716.362-1.095.248-.383-.114-.704-.362-1.034-.581a7.878 7.878 0 00-6.464-.97c-.36.108-.788.36-.718.73.032.179.184.313.335.418.4.275.865.444 1.256.727.388.29.712.754.619 1.23-.102.523-.666.841-1.2.861-.529.02-1.037-.178-1.545-.338-1.79-.564-4.548-.87-6.294.038-1.577.817-3.259 2.777-4.287 4.214-.843 1.177-1.456 2.503-2.008 3.84a55.1 55.1 0 00-1.446 3.876l-.18.433z"/><path d="M24.982 16.916l-.484-.416-.479.416s.303 1.43 0 2.473c-.24.81-.842 1.785-.299 2.644.391.623 1.167.623 1.56 0 .543-.86-.063-1.835-.298-2.644-.306-1.043 0-2.473 0-2.473z"/></g><path stroke="#5D5246" stroke-linecap="square" d="M24.5 15.5v41"/><path fill="#5D5246" d="M24.5 60L33 43l-8.386 8.5L16 43z"/></g></svg>