<svg xmlns="http://www.w3.org/2000/svg" width="176" height="204"><g fill="none" fill-rule="evenodd"><text fill="#3D342B" font-family="UtopiaStd-Capt, Utopia Std" font-size="14" transform="translate(1)"><tspan x="0" y="78">NUMBER </tspan> <tspan x="0" y="97.8">OF PEOPLE </tspan> <tspan x="0" y="117.6">IN THIS </tspan> <tspan x="0" y="137.4">GROUP</tspan></text><g fill="#807160"><path d="M85.786 102c0 51-21.551 81.6-67.786 102 49.534-20.4 73-51 73-102S67.534 20.4 18 0c46.235 20.4 67.786 51 67.786 102z"/><path d="M133.293 102c0 51-39.291 81.6-115.293 102 81.426-20.4 120-51 120-102S99.426 20.4 18 0c76.002 20.4 115.293 51 115.293 102z"/><path d="M106.662 102c0 51-35.623 81.6-88.662 102 56.824-20.4 109-51 109-102S74.824 20.4 18 0c53.04 20.4 88.662 51 88.662 102z"/></g><path fill="#3D342B" fill-rule="nonzero" d="M16 62v-1h4v-1h1v1h4v1h-9zm5-8v4h-1v-4h1zm0-6v4h-1v-4h1zm0-6v4h-1v-4h1zm0-6v4h-1v-4h1zm0-6v4h-1v-4h1zm0-6v4h-1v-4h1zm0-6v4h-1v-4h1zm0-6v4h-1v-4h1zm0-6v4h-1V6h1zm0-5.001V4h-1V1h-4V0h9v1l-4-.001zM20 199h1v4h4v1h-9v-1h4v-4zm1-6v4h-1v-4h1zm0-6v4h-1v-4h1zm0-6v4h-1v-4h1zm0-6v4h-1v-4h1zm0-6v4h-1v-4h1zm0-6v4h-1v-4h1zm0-6v4h-1v-4h1zm0-6v4h-1v-4h1zm4-6v1h-4v3h-1v-3h-4v-1h9z"/></g></svg>