<svg xmlns="http://www.w3.org/2000/svg" width="142" height="160"><g fill="none" fill-rule="evenodd"><g fill="#807160"><path d="M42.4 66c0 33-12.266 52.8-41.4 66 31.213-13.2 46-33 46-66S32.213 13.2 1 0c29.134 13.2 41.4 33 41.4 66z"/><path d="M111.49 66c0 33-37.655 52.8-110.49 66 78.033-13.2 115-33 115-66S79.033 13.2 1 0c72.835 13.2 110.49 33 110.49 66z"/><path d="M58.7 66c0 33-17.799 52.8-57.7 66 42.749-13.2 82-33 82-66S43.749 13.2 1 0c39.901 13.2 57.7 33 57.7 66z"/></g><text fill="#3D342B" font-family="UtopiaStd-Capt, Utopia Std" font-size="14" transform="translate(1)"><tspan x="28.635" y="153">A GROUP </tspan></text></g></svg>