<svg xmlns="http://www.w3.org/2000/svg" width="140" height="163"><g fill="none" fill-rule="evenodd"><g fill="#807160"><path d="M41.4 66c0 33-12.266 52.8-41.4 66 31.213-13.2 46-33 46-66S31.213 13.2 0 0c29.134 13.2 41.4 33 41.4 66z"/><path d="M110.49 66c0 33-37.655 52.8-110.49 66 78.033-13.2 115-33 115-66S78.033 13.2 0 0c72.835 13.2 110.49 33 110.49 66z"/><path d="M57.7 66c0 33-17.799 52.8-57.7 66 42.749-13.2 82-33 82-66S42.749 13.2 0 0c39.901 13.2 57.7 33 57.7 66z"/></g><text fill="#3D342B" font-family="UtopiaStd-Regular, Utopia Std" font-size="14"><tspan x="28.824" y="153">A GROUP </tspan></text></g></svg>