<svg xmlns="http://www.w3.org/2000/svg" width="249" height="357"><g fill="none" fill-rule="evenodd"><g opacity=".622"><path fill="#355F30" d="M96 0c11.922 6 16.765 15 16.765 30S107.922 54 96 60c12.774-6 19-15 19-30S108.774 6 96 0"/><path fill="#355F30" d="M97 0c54.615 6 80.844 15 80.844 30S151.615 54 97 60c58.516-6 83-15 83-30S155.516 6 97 0"/><path fill="#355F30" d="M98 0c31.957 6 46.87 15 46.87 30S129.957 54 98 60c34.24-6 49-15 49-30S132.24 6 98 0"/><path fill="#355F30" d="M97 0c42.61 6 62.833 15 62.833 30S139.611 54 97 60c45.655-6 65-15 65-30S142.655 6 97 0"/><path fill="#355F30" d="M97 0c25.946 6 37.838 15 37.838 30S122.946 54 97 60c27.799-6 40-15 40-30S124.799 6 97 0"/><path fill="#355F30" d="M97 0c42.61 6 62.833 15 62.833 30S139.611 54 97 60c45.655-6 65-15 65-30S142.655 6 97 0"/><path fill="#355F30" d="M97 0c37.283 6 54.85 15 54.85 30S134.282 54 97 60c39.946-6 57-15 57-30S136.946 6 97 0m-1 61c11.922 7 16.765 17.5 16.765 35S107.922 124 96 131c12.774-7 19-17.5 19-35s-6.226-28-19-35"/><path fill="#355F30" d="M97 61c12.923 7 17.77 17.5 17.77 35s-4.847 28-17.77 35c13.846-7 21-17.5 21-35s-7.154-28-21-35"/><path fill="#355F30" d="M98 61c16.272 7 22.816 17.5 22.816 35S114.272 124 98 131c17.435-7 26-17.5 26-35s-8.565-28-26-35"/><path fill="#355F30" d="M97 61c54.615 7 80.844 17.5 80.844 35S151.615 124 97 131c58.516-7 83-17.5 83-35s-24.484-28-83-35"/><path fill="#355F30" d="M97 61c25.277 7 36.833 17.5 36.833 35S122.277 124 97 131c27.083-7 39-17.5 39-35s-11.917-28-39-35"/><path fill="#355F30" d="M97 61c21.587 7 30.762 17.5 30.762 35S118.587 124 97 131c23.13-7 34-17.5 34-35s-10.87-28-34-35"/><path fill="#355F30" d="M98 61c23.294 7 33.882 17.5 33.882 35S121.294 124 98 131c24.958-7 36-17.5 36-35s-11.042-28-36-35"/><path fill="#355F30" d="M97 61c38.25 7 55.752 17.5 55.752 35S135.25 124 97 131c40.983-7 59-17.5 59-35s-18.017-28-59-35"/><path fill="#355F30" d="M96 61c29.936 7 43.81 17.5 43.81 35S125.936 124 96 131c32.075-7 46-17.5 46-35s-13.925-28-46-35"/><path fill="#355F30" d="M98 61c31.957 7 46.87 17.5 46.87 35S129.957 124 98 131c34.24-7 49-17.5 49-35s-14.76-28-49-35"/><path fill="#355F30" d="M101 61c-31.957 7-46.87 17.5-46.87 35s14.913 28 46.87 35c-34.24-7-49-17.5-49-35s14.76-28 49-35"/><path fill="#355F30" d="M97 131c-63.948-7-94.844-17.5-94.844-35S33.052 68 97 61C28.485 68 0 78.5 0 96s28.485 28 97 35m0-70c25.946 7 37.838 17.5 37.838 35S122.946 124 97 131c27.799-7 40-17.5 40-35s-12.201-28-40-35m-1 70c29.936 10.5 43.81 26.25 43.81 52.5S125.936 225.5 96 236c32.075-10.5 46-26.25 46-52.5s-13.925-42-46-52.5"/><path fill="#355F30" d="M97 131c33.944 10.5 49.833 26.25 49.833 52.5S130.944 225.5 97 236c36.369-10.5 52-26.25 52-52.5s-15.631-42-52-52.5"/><path fill="#355F30" d="M97 131c33.548 10.5 47.646 26.25 47.646 52.5S130.548 225.5 97 236c35.945-10.5 53-26.25 53-52.5s-17.055-42-53-52.5"/><path fill="#355F30" d="M97 131c29.584 10.5 42.753 26.25 42.753 52.5S126.584 225.5 97 236c31.698-10.5 46-26.25 46-52.5s-14.302-42-46-52.5"/><path fill="#355F30" d="M96 131c13.934 10.5 19.8 26.25 19.8 52.5s-5.866 42-19.8 52.5c14.928-10.5 22-26.25 22-52.5s-7.072-42-22-52.5"/><path fill="#355F30" d="M97 131c28.618 10.5 41.854 26.25 41.854 52.5S125.618 225.5 97 236c30.662-10.5 44-26.25 44-52.5s-13.338-42-44-52.5"/><path fill="#355F30" d="M97 131c28.618 10.5 41.854 26.25 41.854 52.5S125.618 225.5 97 236c30.662-10.5 44-26.25 44-52.5s-13.338-42-44-52.5"/><path fill="#355F30" d="M97 131c28.618 10.5 41.854 26.25 41.854 52.5S125.618 225.5 97 236c30.662-10.5 44-26.25 44-52.5s-13.338-42-44-52.5"/><path fill="#355F30" d="M98 131c25.6 10.5 36.8 26.25 36.8 52.5s-11.2 42-36.8 52.5c27.428-10.5 40-26.25 40-52.5s-12.572-42-40-52.5"/><path fill="#355F30" d="M98 131c23.294 10.5 33.882 26.25 33.882 52.5S121.294 225.5 98 236c24.958-10.5 36-26.25 36-52.5s-11.042-42-36-52.5"/><path fill="#355F30" d="M97 131c51.945 10.5 76.836 26.25 76.836 52.5S148.946 225.5 97 236c55.656-10.5 79-26.25 79-52.5s-23.344-42-79-52.5"/><path fill="#355F30" d="M97 131c37.95 10.5 55.852 26.25 55.852 52.5S134.95 225.5 97 236c40.661-10.5 58-26.25 58-52.5s-17.339-42-58-52.5"/><path fill="#355F30" d="M98 131c30.622 10.5 44.864 26.25 44.864 52.5S128.622 225.5 98 236c32.808-10.5 47-26.25 47-52.5s-14.192-42-47-52.5"/><path fill="#355F30" d="M97 131c35.947 10.5 52.843 26.25 52.843 52.5S132.947 225.5 97 236c38.515-10.5 55-26.25 55-52.5s-16.485-42-55-52.5"/><path fill="#355F30" d="M98 131c30.622 10.5 44.864 26.25 44.864 52.5S128.622 225.5 98 236c32.808-10.5 47-26.25 47-52.5s-14.192-42-47-52.5"/><path fill="#355F30" d="M98 131c30.622 10.5 44.864 26.25 44.864 52.5S128.622 225.5 98 236c32.808-10.5 47-26.25 47-52.5s-14.192-42-47-52.5"/><path fill="#355F30" d="M98 131c23.294 10.5 33.882 26.25 33.882 52.5S121.294 225.5 98 236c24.958-10.5 36-26.25 36-52.5s-11.042-42-36-52.5"/><path fill="#355F30" d="M96 131c29.936 10.5 43.81 26.25 43.81 52.5S125.936 225.5 96 236c32.075-10.5 46-26.25 46-52.5s-13.925-42-46-52.5"/><path fill="#355F30" d="M97 131c39.286 10.5 57.857 26.25 57.857 52.5S136.287 225.5 97 236c42.092-10.5 60-26.25 60-52.5s-17.908-42-60-52.5"/><path fill="#355F30" d="M97 131c44.613 10.5 65.841 26.25 65.841 52.5S141.613 225.5 97 236c47.8-10.5 68-26.25 68-52.5s-20.2-42-68-52.5"/><path fill="#355F30" d="M98 131c21.29 10.5 30.871 26.25 30.871 52.5s-9.58 42-30.871 52.5c22.812-10.5 33-26.25 33-52.5s-10.188-42-33-52.5"/><path fill="#355F30" d="M97 131c46.616 10.5 68.848 26.25 68.848 52.5S143.616 225.5 97 236c49.946-10.5 71-26.25 71-52.5s-21.054-42-71-52.5"/><path fill="#926E40" d="M173.836 183.5c0 26.25-24.89 42-76.836 52.5 55.656-10.5 79-26.25 79-52.5s-23.344-42-79-52.5c51.945 10.5 76.836 26.25 76.836 52.5z"/><path fill="#355F30" d="M97 131c37.95 10.5 55.852 26.25 55.852 52.5S134.95 225.5 97 236c40.661-10.5 58-26.25 58-52.5s-17.339-42-58-52.5"/><path fill="#355F30" d="M98 131c23.294 10.5 33.882 26.25 33.882 52.5S121.294 225.5 98 236c24.958-10.5 36-26.25 36-52.5s-11.042-42-36-52.5"/><path fill="#355F30" d="M96 131c29.936 10.5 43.81 26.25 43.81 52.5S125.936 225.5 96 236c32.075-10.5 46-26.25 46-52.5s-13.925-42-46-52.5"/><path fill="#355F30" d="M98 131c21.29 10.5 30.871 26.25 30.871 52.5s-9.58 42-30.871 52.5c22.812-10.5 33-26.25 33-52.5s-10.188-42-33-52.5"/><path fill="#355F30" d="M97 131c28.618 10.5 41.854 26.25 41.854 52.5S125.618 225.5 97 236c30.662-10.5 44-26.25 44-52.5s-13.338-42-44-52.5"/><path fill="#355F30" d="M97 131c35.947 10.5 52.843 26.25 52.843 52.5S132.947 225.5 97 236c38.515-10.5 55-26.25 55-52.5s-16.485-42-55-52.5"/><path fill="#355F30" d="M98 131c21.29 10.5 30.871 26.25 30.871 52.5s-9.58 42-30.871 52.5c22.812-10.5 33-26.25 33-52.5s-10.188-42-33-52.5"/><path fill="#355F30" d="M97 131c29.24 10.5 41.72 26.25 41.72 52.5S126.24 225.5 97 236c31.33-10.5 46-26.25 46-52.5s-14.67-42-46-52.5"/><path fill="#355F30" d="M97 131c39.286 10.5 57.857 26.25 57.857 52.5S136.287 225.5 97 236c42.092-10.5 60-26.25 60-52.5s-17.908-42-60-52.5"/><path fill="#926E40" d="M183.964 183.5c0 26.25-28.272 42-86.964 52.5 62.883-10.5 97-25.662 97-51.912S159.883 141.5 97 131c58.692 10.5 86.964 26.25 86.964 52.5z"/><path fill="#355F30" d="M97 131c100.614 10.5 149.844 26.25 149.844 52.5S197.614 225.5 97 236c107.801-10.5 152-26.25 152-52.5s-44.199-42-152-52.5"/></g><path stroke="#3D342B" stroke-dasharray="3 3" stroke-linecap="square" d="M59.5 250.5V126.46"/><text fill="#3D342B" font-family=".AppleSystemUIFont" font-size="14"><tspan x="16" y="271">FREELANCERS </tspan> <tspan x="16" y="288">+ </tspan> <tspan x="16" y="305">CONSULTANTS </tspan> <tspan x="16" y="322">ARE POINTING </tspan> <tspan x="16" y="339">IN THE OTHER </tspan> <tspan x="16" y="356">DIRECTION</tspan></text><text fill="#3D342B" font-family=".AppleSystemUIFont" font-size="14"><tspan x="161" y="271">JOB TITLES </tspan> <tspan x="161" y="288">THAT MATCH </tspan> <tspan x="161" y="305">MORE THAN </tspan> <tspan x="161" y="322">ONE FAMILY </tspan> <tspan x="161" y="339">WIN MIXED </tspan> <tspan x="161" y="356">COLORS </tspan></text><path stroke="#3D342B" stroke-dasharray="3 3" stroke-linecap="square" d="M192.207 251.5c8.667-7.645 13-17.145 13-28.5 0-9.21-4.333-18.71-13-28.5"/></g></svg>