<svg xmlns="http://www.w3.org/2000/svg" width="93" height="132"><g fill="none" fill-rule="evenodd"><path fill="#3D342B" fill-rule="nonzero" d="M25.451 57v-.434l-.686-.07c-.406-.042-.434-.182-.336-.518.224-.798.504-1.554.798-2.478h2.94c.182.448.658 1.806.882 2.45.14.378.07.518-.35.56l-.602.056V57h3.472v-.434c-.756-.056-.896-.098-1.134-.784a454.969 454.969 0 01-2.8-7.98h-1.064c-.896 2.562-1.862 5.376-2.814 7.854-.266.714-.392.868-1.218.91V57h2.912zm2.562-4.018h-2.604c.406-1.302.882-2.688 1.274-3.822h.042c.308.868.98 2.87 1.288 3.822zm6.692 5.628c.518-.028.938-.084 1.456-.322 1.19-.546 1.386-1.638 1.386-2.996v-6.16c0-.742.042-.756 1.176-.84v-.434h-3.752v.434c1.148.084 1.176.098 1.176.84v6.23c0 1.274-.224 1.946-.532 2.324-.294.35-.574.476-.98.588l.07.336zm9.422-1.386c2.968 0 4.424-1.932 4.424-4.788 0-2.87-1.442-4.816-4.41-4.816h-.014c-2.996 0-4.424 1.946-4.424 4.816 0 2.856 1.428 4.788 4.424 4.788zm-.014-.49c-2.324 0-2.842-2.366-2.842-4.298s.518-4.312 2.842-4.312h.014c2.31 0 2.842 2.38 2.842 4.312 0 1.932-.532 4.298-2.856 4.298zm9.324.266c1.204 0 2.226-.252 2.856-.784.504-.434.826-1.05.826-1.89 0-1.638-1.162-2.128-2.436-2.296v-.028c1.26-.252 2.016-.91 2.016-2.044 0-1.806-1.568-2.1-3.08-2.1h-3.962v.434c1.148.07 1.176.098 1.176.84v6.594c0 .728-.028.756-1.176.84V57h3.78zm-.378-5.166h-.826v-2.842c0-.574.056-.644 1.022-.658.994-.014 1.974.364 1.974 1.708 0 1.316-.784 1.792-2.17 1.792zm.336 4.676c-1.022 0-1.162-.196-1.162-1.022v-3.164h.882c1.638 0 2.492.644 2.492 2.114 0 1.568-1.092 2.072-2.212 2.072zM27.978 76.8v-.434l-.672-.042c-.709-.052-.778-.191-.784-.693v-7.483h.77c1.526 0 1.75.308 1.932 1.848h.448v-2.338H22v2.338h.448c.182-1.526.42-1.848 1.932-1.848h.756v7.378c0 .574-.028.756-.77.784l-.672.056v.434h4.284zm6.174 0v-.434c-1.077-.08-1.17-.11-1.176-.736v-6.698c0-.742.042-.77 1.176-.84v-.434h-3.738v.434c1.148.07 1.176.098 1.176.84v6.594c0 .728-.028.756-1.176.84v.434h3.738zm6.79 0v-.434l-.672-.042c-.709-.052-.778-.191-.784-.693v-7.483h.77c1.526 0 1.75.308 1.932 1.848h.448v-2.338h-7.672v2.338h.448c.182-1.526.42-1.848 1.932-1.848h.756v7.378c0 .574-.028.756-.77.784l-.672.056v.434h4.284zm9.24 0l.308-2.562h-.462c-.308 1.792-1.008 2.072-2.394 2.072-1.449 0-1.664-.231-1.679-1.015l-.001-6.363c0-.742.028-.77 1.26-.84v-.434h-3.836v.434c1.148.07 1.176.098 1.176.84v6.594c0 .728-.028.756-1.176.84v.434h6.804zm7.896 0l.28-2.422h-.462c-.308 1.596-.896 1.932-2.548 1.932-1.462 0-1.652-.206-1.665-1.011l-.001-2.979h1.722c1.106 0 1.176.392 1.288 1.232h.448v-2.968h-.448c-.112.826-.182 1.19-1.288 1.19h-1.722V68.61c0-.42.056-.476.476-.476h1.204c1.512 0 1.806.35 2.002 1.708h.448v-2.184h-6.706v.434c1.148.07 1.176.098 1.176.84v6.594c0 .728-.028.77-1.176.84v.434h6.972z"/><path fill="#807160" d="M87.614 66c0 33-12.266 52.8-41.4 66 31.213-13.2 46-33 46-66s-14.787-52.8-46-66c29.134 13.2 41.4 33 41.4 66z"/></g></svg>