<svg xmlns="http://www.w3.org/2000/svg" width="100" height="178"><g fill="none" fill-rule="evenodd"><text fill="#3D342B" font-family="UtopiaStd-Capt, Utopia Std" font-size="14"><tspan x="9.282" y="154">NUMBER OF</tspan> <tspan x="5.089" y="173.8">CHARACTERS</tspan></text><path fill="#807160" d="M91.4 66c0 33-30.598 52.8-91.4 66 65.14-13.2 96-33 96-66S65.14 13.2 0 0c60.802 13.2 91.4 33 91.4 66z"/><path fill="#3D342B" fill-rule="nonzero" d="M100 137h-1v-4h-3v-1h3v-4h1v9zm-96-9v9H3v-9h1zm90 4v1h-4v-1h4zm-6 0v1h-4v-1h4zm-6 0v1h-4v-1h4zm-6 0v1h-4v-1h4zm-6 0v1h-4v-1h4zm-6 0v1h-4v-1h4zm-6 0v1h-4v-1h4zm-6 0v1h-4v-1h4zm-6 0v1h-4v-1h4zm-6 0v1h-4v-1h4zm-6 0v1h-4v-1h4zm-6 0v1h-4v-1h4zm-6 0v1h-4v-1h4zm-6 0v1h-4v-1h4zm-6 0v1H6v-1h4z"/></g></svg>